SplineFontDB: 3.0
FontName: Experiment2-Latin
FullName: Experiment2-Latin
FamilyName: Experiment2-Latin
Weight: Regular
Copyright: Copyright (c) 2015, Pathum Egodawatta
UComments: "2015-9-29: Created with FontForge (http://fontforge.org)"
Version: 0.001
ItalicAngle: 0
UnderlinePosition: 100
UnderlineWidth: 49
Ascent: 1000
Descent: 0
InvalidEm: 0
LayerCount: 3
Layer: 0 0 "Back" 1
Layer: 1 0 "Fore" 0
Layer: 2 0 "new" 1
PreferredKerning: 4
XUID: [1021 779 -1439063335 14876943]
FSType: 0
OS2Version: 0
OS2_WeightWidthSlopeOnly: 0
OS2_UseTypoMetrics: 1
CreationTime: 1443542790
ModificationTime: 1458065254
PfmFamily: 17
TTFWeight: 400
TTFWidth: 5
LineGap: 122
VLineGap: 0
OS2TypoAscent: 129
OS2TypoAOffset: 1
OS2TypoDescent: 0
OS2TypoDOffset: 1
OS2TypoLinegap: 122
OS2WinAscent: 129
OS2WinAOffset: 1
OS2WinDescent: -161
OS2WinDOffset: 1
HheadAscent: 29
HheadAOffset: 1
HheadDescent: 183
HheadDOffset: 1
OS2CapHeight: 0
OS2XHeight: 0
OS2Vendor: 'PfEd'
MarkAttachClasses: 1
DEI: 91125
LangName: 1033
Encoding: ISO8859-1
Compacted: 1
UnicodeInterp: none
NameList: Adobe Glyph List
DisplaySize: -128
AntiAlias: 1
FitToEm: 1
WinInfo: 16 8 7
BeginPrivate: 0
EndPrivate
Grid
-1000 822.174682617 m 0
 2000 822.174682617 l 1024
-1000 801 m 0
 2000 801 l 1024
-1000 62 m 0
 2000 62 l 1024
2000 766 m 1024
-1000 1143 m 0
 2000 1143 l 1024
665 1500 m 0
 665 -500 l 1024
149 1500 m 0
 149 -500 l 1024
-1000 499 m 0
 2000 499 l 1024
-1000 612 m 0
 2000 612 l 1024
EndSplineSet
AnchorClass2: "thn_ubufibi" "" 
BeginChars: 309 156

StartChar: a
Encoding: 97 97 1
AltUni2: 0000aa.ffffffff.0
GlifName: uni0061
Width: 659
VWidth: 153
Flags: HMW
LayerCount: 3
Back
SplineSet
55 115 m 0
 55 216 125 296 280 331 c 0
 372 352 442 356 442 356 c 1
 439 273 l 1
 439 273 382 299 305 288 c 0
 228 277 186 228 181 180 c 4
 174.366210938 116.313476562 198 79 255 71 c 0
 327.459960938 60.830078125 405 168 411 209 c 1
 441 169 l 1
 441 169 378.270507812 1.779296875 229 -13 c 0
 128 -23 55 22 55 115 c 0
91 550 m 1
 160 587 301.818359375 635.70703125 419 615 c 0
 485.006835938 603.3359375 524 575 527 443 c 0
 528.827148438 371.755859375 504 219 528.145507812 133.20703125 c 0
 542.330078125 82.806640625 566.504882812 50.30078125 640.044921875 59 c 1
 648.95703125 16 l 1
 630.426757812 9.08203125 561.856445312 -19.521484375 491.892578125 -18.55859375 c 0
 432.123046875 -17.736328125 408.553710938 15.9072265625 407.828125 61 c 0
 407.530273438 79.5244140625 409.112304688 112.024414062 411.484375 136 c 1
 412.327148438 144.517578125 403.26953125 143.221679688 404.262695312 152 c 1
 408.07421875 185.684570312 412.635742188 220.461914062 415.1875 250 c 0
 420.987304688 287.05078125 410.223632812 281.6484375 412.1328125 310 c 1
 422.228515625 315.5703125 l 1
 421.490234375 466.5078125 386.569335938 561.575195312 293 558 c 0
 204.997070312 554.63671875 152.358398438 454.2578125 104 373 c 1
 88 440 91 550 91 550 c 1
EndSplineSet
Fore
SplineSet
55 125 m 0
 55 221.324074074 125.429466719 295.717595664 280 331 c 0
 372 352 442 356 442 356 c 1
 439 273 l 1
 439 273 382 299 305 288 c 0
 228 277 185.455364009 228.053613096 181 180 c 0
 175.03674677 115.682951392 199.953063604 69.1827701794 262 70.6337890625 c 0
 358.449250546 72.889334492 410.836678345 178.377949777 417 219 c 1
 441 179 l 1
 424.410835737 138.613129276 358.916499581 -12.0768951312 199 -13 c 0
 115.006434755 -13.4848459617 55 41.984375 55 125 c 0
101 540 m 5
 155.447467795 574.691890497 257.024675816 618.663328087 353.999996031 619.909240079 c 0
 449.477028748 621.089261333 524.222655545 605.276946737 527 483 c 0
 528.827148438 402.556923594 501.099097504 229.307908078 528.145507812 133.20703125 c 0
 540.428651237 82.806640625 561.362848514 50.30078125 625.044921875 59 c 1
 633.95703125 26 l 1
 617.786333524 7.08022272734 557.953852722 -19.3640980857 496.892578125 -18.55859375 c 0
 433.568064416 -17.736328125 410.221186526 15.9707937404 407.828125 61 c 0
 406.797100362 83.72328125 412.273362382 123.589947916 420.484375 153 c 1
 422.377452698 152.467651367 403.220310423 147.192604672 404.262695312 152 c 0
 418.873998163 208.868943258 422.173000482 271.022269043 422.1328125 310 c 1
 422.228515625 315.5703125 l 1
 421.490234375 466.5078125 386.561729464 561.769009045 293 558 c 0
 209.653309978 554.454919764 159.799753018 448.650126689 114 363 c 5
 98 430 101 540 101 540 c 5
EndSplineSet
Layer: 2
SplineSet
55 115 m 4
 55 216 125 296 280 331 c 4
 372 352 446 356 446 356 c 5
 446 273 l 5
 446 273 382 299 305 288 c 4
 228 277 183 218 181 160 c 4
 179 96 217 65 274 61 c 4
 347 56 416 148 422 189 c 5
 448 149 l 5
 448 149 388.270507812 1.779296875 239 -13 c 4
 138 -23 55 22 55 115 c 4
95 529 m 5
 184 576 300.026367188 623.301757812 409 611 c 4
 494.48046875 601.350585938 524 575 527 443 c 4
 528.827148438 371.755859375 511.458984375 212.912109375 528.145507812 124.20703125 c 5
 547.874023438 73.396484375 566.504882812 41.30078125 640.044921875 50 c 5
 648.95703125 11 l 5
 630.426757812 4.08203125 561.856445312 -24.521484375 491.892578125 -23.55859375 c 4
 432.123046875 -22.736328125 409.553710938 15.9072265625 408.828125 61 c 4
 408.018554688 111.359375 417.099609375 191.096679688 422.1875 250 c 4
 427.987304688 287.05078125 417.223632812 281.6484375 419.1328125 310 c 5
 429.228515625 315.5703125 l 5
 428.830078125 370.059570312 429.250976562 418.8359375 424 447 c 4
 413 506 362.1171875 540.692382812 327 548 c 4
 262.982421875 561.321289062 186.228515625 506.926757812 146 391 c 5
 98 382 l 5
 102 449 95 529 95 529 c 5
EndSplineSet
Colour: ff0000
EndChar

StartChar: n
Encoding: 110 110 2
GlifName: uni006E_
Width: 807
VWidth: 79
Flags: HMW
LayerCount: 3
Back
SplineSet
34 565 m 1
 169.344726562 580.5390625 310.766601562 608 312.784179688 608 c 1
 308.30078125 574.534179688 295.0703125 519.4296875 283.087890625 438 c 1
 282.126953125 430.500976562 306.185546875 430.831054688 305.272460938 423 c 1
 300.528320312 382.314453125 276.546875 337.262695312 274.63671875 289 c 0
 270.737304688 190.521484375 250.075195312 48 364.23046875 48 c 0
 367.23046875 48 370.23046875 48 372.23046875 48 c 2
 382.23046875 0 l 1
 55.23046875 0 l 1
 47.23046875 62 l 1
 167.087890625 50.345703125 180.255859375 140.15625 181.51953125 258 c 0
 182.05078125 307.549804688 188.012695312 389.530273438 179.275390625 422 c 0
 161.46484375 488.192382812 110.966796875 508.020507812 37.7333984375 504 c 1
 34 565 l 1
436.23046875 58 m 1
 514.0703125 58 551.495117188 67.4052734375 563.486328125 237 c 0
 568.1328125 302.711914062 570.583007812 376.310546875 565.452148438 444 c 0
 561.334960938 498.321289062 521.279296875 520.572265625 488.267578125 520.791992188 c 0
 382.765625 521.494140625 273.326171875 321.228515625 271.166015625 214 c 1
 233.744140625 238 l 1
 274.283203125 486 404.069335938 619.306640625 531.12109375 619 c 0
 590.923828125 618.85546875 651.404296875 583.135742188 668.354492188 520 c 0
 686.5078125 452.3828125 666.068359375 342.143554688 662.797851562 242 c 0
 659.604492188 144.241210938 668.748046875 50 755.23046875 50 c 0
 758.23046875 50 760.23046875 50 762.23046875 50 c 2
 772.23046875 0 l 1
 446.23046875 0 l 1
 436.23046875 58 l 1
EndSplineSet
Fore
SplineSet
34 565 m 1
 41.6546940276 565.878843025 49.3302806212 566.787678646 56.9999962711 567.721872694 c 0
 107.000620917 573.812096642 265.176757812 599.317382812 311 604.887695312 c 1
 305.05859375 577.008789062 287.48943621 478.124965778 283.087890625 438 c 0
 278.426420484 395.505533851 274.950788765 397.375976565 275.272460938 353 c 1
 275.174012194 333.568097015 274.695568477 312.040973647 274.63671875 289 c 0
 270.737304688 190.521484375 250.075195312 48 364.23046875 48 c 0
 367.23046875 48 372.147274074 48.3993344426 372.23046875 48 c 2
 382.23046875 0 l 1
 69 0 l 6
 63 61.0771484375 l 4
 167.890260157 64.3057190263 180.245610394 149.206485104 181.51953125 258 c 0
 182.05078125 307.549804688 188.012139847 409.530123972 179.275390625 442 c 0
 161.46484375 508.192382812 110.966796875 508.020507812 37.7333984375 504 c 1
 34 565 l 1
436.23046875 58 m 1
 514.0703125 58 551.494302165 67.4053310657 563.486328125 237 c 0
 568.132812499 299.53742546 570.58255525 369.58053612 565.452148438 434 c 0
 560.801539882 495.395111151 525.556281247 520.543678708 478.267578125 520.791992188 c 0
 377.623828644 521.259583008 273.226672073 321.228515625 271.166015625 214 c 1
 243.744140625 238 l 1
 282.91998173 486 418.34164013 619.263069426 531.12109375 619 c 0
 600.923781123 618.837178207 651.404313202 583.135746571 668.354492188 520 c 0
 686.5078125 452.3828125 666.069110176 342.143530165 662.797851562 242 c 0
 659.604492188 144.241210938 668.748046875 50 755.23046875 50 c 0
 758.23046875 50 762.153545673 50.3846153846 762.23046875 50 c 2
 772.23046875 0 l 1
 446.23046875 0 l 1
 436.23046875 58 l 1
EndSplineSet
Layer: 2
SplineSet
40.2666015625 555 m 5
 175.611328125 581.5390625 312.033203125 608 314.05078125 608 c 5
 306.759765625 553.265625 281.723632812 436.028320312 275.903320312 289 c 4
 272.00390625 190.521484375 251.341796875 48 365.497070312 48 c 4
 368.497070312 48 371.497070312 48 373.497070312 48 c 6
 383.497070312 0 l 5
 61.4970703125 0 l 5
 53.4970703125 62 l 5
 193.354492188 50.345703125 191.383789062 170.016601562 192.786132812 288 c 4
 194.931640625 468.452148438 198.063476562 489.993164062 34 494 c 5
 40.2666015625 555 l 5
EndSplineSet
EndChar

StartChar: d
Encoding: 100 100 3
GlifName: uni0064
Width: 752
VWidth: 79
Flags: HMW
LayerCount: 3
Back
SplineSet
564.416015625 549 m 1
 515.416015625 439 l 1
 515.416015625 439 458.58984375 556.004882812 331.416015625 536 c 0
 249.240234375 523.073242188 181.416992188 418.293945312 176.416015625 255 c 0
 173.383789062 155.970703125 194.645507812 88.55078125 279.416015625 83.8623046875 c 0
 370.20703125 78.8408203125 467.399414062 211.961914062 479.416015625 370 c 1
 509.416015625 305 l 1
 481.416015625 62 333.416015625 -19 248.416015625 -22 c 0
 103.506835938 -27.1142578125 41.5673828125 76.6298828125 57.416015625 247 c 0
 73.416015625 419 192.424804688 603.1953125 422.416015625 606 c 0
 504.416015625 607 531.416015625 570 564.416015625 549 c 1
301.15625 834 m 5
 436.500976562 847.5390625 604.923828125 877 606.94140625 877 c 1
 582.86203986 771.317009143 565.563660064 501.757115223 564.981445312 361 c 0
 564.392971417 218.729664691 566.350585938 30.349609375 713.4609375 50 c 1
 722.373046875 11 l 1
 703.842773438 4.08203125 628.272460938 -24.521484375 558.30859375 -23.55859375 c 0
 498.5390625 -22.736328125 475.969726562 15.9072265625 475.244140625 61 c 0
 474.434570312 111.359375 473.515625 191.096679688 478.603515625 250 c 0
 484.403320312 287.05078125 473.639648438 281.6484375 475.548828125 310 c 0
 479.020507812 361.587890625 476.219726562 612.171875 470.30859375 675 c 0
 463.420898438 748.215820312 426.645507812 770.124023438 308.889648438 773 c 1
 301.15625 834 l 5
EndSplineSet
Fore
SplineSet
564.416015625 549 m 1
 515.416015625 439 l 1
 515.416015625 439 458.589790694 556.005220095 331.416015625 536 c 0
 249.240234375 523.073242188 181.415993883 418.293975883 176.416015625 255 c 0
 173.383789062 155.970703125 194.645509167 88.5508057546 279.416015625 83.8623046875 c 0
 370.20703125 78.8408203125 467.399414062 211.961914062 479.416015625 370 c 1
 499.416015625 315 l 1
 472.48881256 64.5688073394 330.163446655 -19.0266709019 248.416015625 -22 c 0
 103.506835938 -27.1142578125 41.5676304876 76.6298597728 57.416015625 247 c 0
 73.416015625 419 192.424805704 603.195229147 422.416015625 606 c 0
 504.416015625 607 531.416015625 570 564.416015625 549 c 1
301.15625 834 m 1
 436.500976562 847.5390625 604.923828125 877 606.94140625 877 c 1
 582.86203986 771.317009143 565.563660063 501.757115223 564.981445312 361 c 0
 564.392971417 223.304273543 566.350585938 40.9814547327 713.4609375 60 c 1
 722.373046875 21 l 1
 693.842773438 2.08022272734 628.272466149 -24.7996216306 558.30859375 -23.55859375 c 0
 498.542808348 -22.4984608065 475.969045959 15.9072156161 475.244140625 61 c 0
 473.938086808 119.828831034 479.595446675 213.420597056 489.602539062 265 c 1
 475.548828125 310 l 0
 479.020507812 361.587890625 476.219084085 612.171814556 470.30859375 675 c 0
 463.420898438 748.215820312 426.645507812 770.124023438 308.889648438 773 c 1
 301.15625 834 l 1
EndSplineSet
Layer: 2
SplineSet
51.416015625 225 m 4
 50.416015625 367 130.696289062 535.5703125 329.416015625 586 c 4
 405.34765625 605.26953125 489.416015625 604 529.416015625 589 c 5
 489.416015625 481 l 5
 489.416015625 481 420.979492188 544.984375 327.416015625 534 c 4
 243.817382812 524.185546875 176.416015625 434 174.416015625 284 c 4
 173.416015625 181 207.616210938 73.482421875 297.416015625 73 c 4
 407.927734375 72.40625 454.416015625 187 475.416015625 241 c 5
 506.416015625 200 l 5
 474.416015625 126 428.416015625 -3 275.416015625 -13 c 4
 130.724609375 -22.45703125 52.416015625 64 51.416015625 225 c 4
350.416015625 830 m 1
 433.416015625 828 604.416015625 850 604.416015625 850 c 1
 562.416015625 672 569.401367188 240.2734375 576.416015625 182 c 0
 586.02734375 102.154296875 620.416015625 51 698.416015625 63 c 1
 711.416015625 19 l 1
 659.416015625 -7 603.416015625 -31 545.416015625 -9 c 0
 494.8046875 10.197265625 479.416015625 127 479.416015625 159 c 0
 479.416015625 169 469.013671875 190.08203125 470.416015625 202 c 0
 494.416015625 406 489.416015625 483 475.416015625 687 c 0
 472.1953125 733.931640625 427.416015625 767 355.416015625 766 c 1
 350.416015625 830 l 1
EndSplineSet
EndChar

StartChar: h
Encoding: 104 104 4
GlifName: uni0068
Width: 843
VWidth: 79
Flags: HMW
LayerCount: 3
Back
SplineSet
68 61 m 5
 146.303710938 56.87890625 178.954101562 90.62109375 185 142 c 4
 209 346 201.548828125 472.846679688 190 677 c 4
 186.779296875 733.931640625 122 767 50 766 c 5
 45 830 l 5
 128 828 329 850 329 850 c 5
 287 672 300.985351562 230.2734375 308 172 c 4
 318.4140625 85.484375 355.295898438 48.2939453125 404 51 c 5
 414 0 l 5
 78 0 l 5
 68 61 l 5
467 58 m 1
 544.83984375 58 582.264648438 67.4052734375 594.255859375 237 c 0
 598.90234375 302.711914062 596.352539062 358.310546875 591.221679688 426 c 0
 587.104492188 480.321289062 562.048828125 512.572265625 519.037109375 512.791992188 c 0
 413.534179688 513.331054688 304.095703125 321.228515625 301.935546875 214 c 1
 269.513671875 238 l 1
 310.052734375 486 455.838867188 611.306640625 582.890625 611 c 0
 642.693359375 610.85546875 692.173828125 575.135742188 699.124023438 512 c 0
 706.784179688 442.409179688 696.837890625 342.143554688 693.567382812 242 c 0
 690.374023438 144.241210938 699.517578125 50 786 50 c 0
 789 50 791 50 793 50 c 2
 803 0 l 1
 477 0 l 1
 467 58 l 1
EndSplineSet
Fore
SplineSet
68 61 m 5
 146.303710938 56.87890625 178.954101562 90.62109375 185 142 c 4
 209 346 201.548828125 472.846679688 190 677 c 4
 186.779296875 733.931640625 122 767 50 766 c 5
 45 830 l 5
 128 828 329 850 329 850 c 5
 287 672 300.985351562 230.2734375 308 172 c 4
 318.4140625 85.484375 355.295898438 48.2939453125 404 51 c 5
 414 0 l 5
 78 0 l 5
 68 61 l 5
467 58 m 1
 544.83984375 58 582.264648438 67.4052734375 594.255859375 237 c 0
 598.90234375 302.711914062 596.352539062 358.310546875 591.221679688 426 c 0
 587.104492188 480.321289062 562.048828125 512.572265625 519.037109375 512.791992188 c 0
 413.534179688 513.331054688 304.095703125 321.228515625 301.935546875 214 c 1
 269.513671875 238 l 1
 310.052734375 486 455.838867188 611.306640625 582.890625 611 c 0
 642.693359375 610.85546875 692.173828125 575.135742188 699.124023438 512 c 0
 706.784179688 442.409179688 696.837890625 342.143554688 693.567382812 242 c 0
 690.374023438 144.241210938 699.517578125 50 786 50 c 0
 789 50 791 50 793 50 c 2
 803 0 l 1
 477 0 l 1
 467 58 l 1
EndSplineSet
Layer: 2
SplineSet
281 454 m 1
 330 522 440 612 547 612 c 0
 623 612 679 582 693 488 c 4
 696 466 698 408 698 363 c 4
 698 244 697 82 693 0 c 5
 564 0 l 1
 582 79 601 202 601 303 c 0
 601 347 599 387 595 417 c 0
 586 480 534 513 475 513 c 0
 374 513 306 417 306 417 c 1
 281 454 l 1
468 62 m 1
 472 62 490 59 504 59 c 0
 543 59 582 69 588 140 c 1
 697 139 l 5
 694 60 754 50 781 50 c 4
 784 50 786 50 788 50 c 5
 798 0 l 5
 478 0 l 1
 468 62 l 1
76 61 m 1
 154.303710938 56.87890625 186.954101562 90.62109375 193 142 c 0
 217 346 212 483 198 687 c 0
 194.779296875 733.931640625 150 767 78 766 c 1
 73 830 l 1
 156 828 334 850 334 850 c 1
 292 672 305.985351562 230.2734375 313 172 c 0
 323.4140625 85.484375 360.295898438 48.2939453125 409 51 c 1
 419 0 l 1
 86 0 l 1
 76 61 l 1
EndSplineSet
EndChar

StartChar: e
Encoding: 101 101 5
GlifName: uni0065
Width: 611
VWidth: 153
Flags: HMW
LayerCount: 3
Back
SplineSet
40 233 m 0
 39.796875 472 206.694335938 599.009765625 333.283203125 609 c 4
 492.383789062 621.555664062 580.499023438 496.48828125 572.921875 308 c 1
 404.505859375 293.5625 302.557617188 297.272460938 160.12109375 296.376953125 c 1
 164.295898438 203.286132812 200.697265625 86.66796875 319.146484375 65 c 0
 421.127929688 46 526.541015625 124 528.541015625 124 c 2
 550.720703125 86 l 1
 532.0390625 59 434.465820312 -30.6279296875 307.411132812 -33 c 0
 200.303710938 -35 40.0771484375 29 40 233 c 0
161.6640625 348.612304688 m 1
 249.481445312 351.528320312 376.212890625 355.954101562 447.921875 360 c 1
 454.201171875 477.8125 376.483398438 539.125 309.921875 539.145507812 c 0
 218.357421875 539.173828125 173.4921875 452.569335938 161.6640625 348.612304688 c 1
EndSplineSet
Fore
SplineSet
37 233 m 4
 36.8017231297 472 199.715722983 599.009765625 323.283203125 609 c 4
 482.383789062 621.555664062 570.499023438 496.48828125 562.921875 308 c 5
 157.12109375 296.376953125 l 5
 161.561169616 193.88634437 198.418032039 63.1120378815 356 62.4765625 c 4
 442.644127466 62.2097934834 519.817004053 112 521.541015625 112 c 6
 540.720703125 86 l 5
 522.0390625 59 434.465820312 -30.6279296875 297.411132812 -33 c 4
 193.104892186 -34.8538043393 37.075128929 29 37 233 c 4
158.6640625 348.612304688 m 5
 244.334004604 351.528320312 367.966424917 355.954101562 437.921875 360 c 5
 444.201171875 486.361765448 366.483398438 552.123511816 299.921875 552.145507812 c 4
 212.680642089 552.175760408 169.933721989 459.662280286 158.6640625 348.612304688 c 5
EndSplineSet
Layer: 2
SplineSet
41.921875 240 m 0
 28.921875 479 171.891601562 599.38671875 298.921875 609 c 4
 483.921875 623 571.921875 527 553.921875 298 c 1
 151.921875 296 l 1
 121.921875 344 l 1
 378.921875 367 l 1
 438.921875 368 l 1
 428.921875 507 344.000976562 554.162109375 284.921875 549 c 4
 181.921875 540 150.921875 452 153.921875 319 c 4
 155.921875 218 197.247070312 79.7333984375 334.921875 53 c 0
 437.921875 33 527.921875 102 529.921875 102 c 1
 553.921875 68 l 1
 534.921875 51 449.921875 -19 322.921875 -21 c 0
 195.921875 -23 52.921875 36 41.921875 240 c 0
EndSplineSet
EndChar

StartChar: i
Encoding: 105 105 6
GlifName: uni0069
Width: 438
VWidth: 79
Flags: HMW
LayerCount: 3
Back
SplineSet
45.2666015625 565 m 1
 180.611328125 583.5390625 341.033203125 608 343.05078125 608 c 5
 335.759765625 553.265625 310.723632812 436.028320312 304.903320312 289 c 4
 301.00390625 190.521484375 280.341796875 48 394.497070312 48 c 4
 397.497070312 48 400.497070312 48 402.497070312 48 c 6
 412.497070312 0 l 5
 76.4970703125 0 l 1
 68.4970703125 62 l 1
 208.354492188 50.345703125 206.383789062 170.016601562 207.786132812 288 c 0
 209.931640625 468.452148438 213.063476562 499.993164062 49 504 c 1
 45.2666015625 565 l 1
168.497070312 782 m 0
 168.497070312 824 202.497070312 852 243.497070312 852 c 0
 293.497070312 852 318.497070312 813 318.497070312 771 c 0
 318.497070312 729 284.497070312 701 243.497070312 701 c 0
 202.497070312 701 168.497070312 740 168.497070312 782 c 0
EndSplineSet
Fore
SplineSet
45.2666015625 565 m 1
 180.611328125 583.5390625 341.033203125 608 343.05078125 608 c 5
 335.759765625 553.265625 310.723632812 436.028320312 304.903320312 289 c 4
 301.00390625 190.521484375 280.341796875 48 394.497070312 48 c 4
 397.497070312 48 400.497070312 48 402.497070312 48 c 6
 412.497070312 0 l 5
 76.4970703125 0 l 1
 68.4970703125 62 l 1
 208.354492188 50.345703125 206.383789062 170.016601562 207.786132812 288 c 0
 209.931640625 468.452148438 213.063476562 499.993164062 49 504 c 1
 45.2666015625 565 l 1
168.497070312 782 m 0
 168.497070312 824 202.497070312 852 243.497070312 852 c 0
 293.497070312 852 318.497070312 813 318.497070312 771 c 0
 318.497070312 729 284.497070312 701 243.497070312 701 c 0
 202.497070312 701 168.497070312 740 168.497070312 782 c 0
EndSplineSet
Layer: 2
SplineSet
66.4970703125 585 m 1
 81.4970703125 584 97.4970703125 584 114.497070312 584 c 0
 208.497070312 584 310.497070312 598 310.497070312 598 c 1
 295.216796875 358.366210938 294.2578125 232.392578125 317.497070312 0 c 1
 182.497070312 0 l 1
 193.497070312 144 207.497070312 226 207.497070312 318 c 0
 207.497070312 443.881835938 210.553710938 520.657226562 73.4970703125 524 c 1
 66.4970703125 585 l 1
78.4970703125 62 m 5
 90.4970703125 61 101.497070312 60 111.497070312 60 c 4
 166.497070312 60 191.497070312 81 194.497070312 130 c 1
 304.497070312 143 l 1
 304.497070312 139 304.10546875 134.974609375 304.497070312 132 c 0
 314.497070312 56 364.497070312 48 392.497070312 48 c 0
 395.497070312 48 398.497070312 48 400.497070312 48 c 1
 410.497070312 0 l 1
 86.4970703125 0 l 5
 78.4970703125 62 l 5
168.497070312 782 m 0
 168.497070312 824 202.497070312 852 243.497070312 852 c 0
 293.497070312 852 318.497070312 813 318.497070312 771 c 0
 318.497070312 729 284.497070312 701 243.497070312 701 c 0
 202.497070312 701 168.497070312 740 168.497070312 782 c 0
EndSplineSet
EndChar

StartChar: s
Encoding: 115 115 7
GlifName: uni0073
Width: 535
VWidth: 153
Flags: HMW
LayerCount: 3
Back
SplineSet
52.2451171875 -2 m 1
 45.119140625 33 44.142578125 107 56.3544921875 167 c 1
 95.171875 122.356445312 218.567382812 50.2919921875 291.552734375 57 c 0
 363.623046875 63.6240234375 385.528320312 96.7099609375 376.4765625 141 c 0
 356.940429688 236.59375 115.13671875 257.981445312 90.4033203125 401 c 4
 67.0703125 535.923828125 206.952148438 621.249023438 344.013671875 619.802734375 c 4
 385.74609375 619.362304688 438.2578125 614.392578125 479.99609375 603 c 5
 483.961914062 535 474.615234375 484 456.794921875 440 c 5
 412.110351562 494 335.264648438 565.821289062 259.604492188 556 c 4
 204.352539062 548.828125 185.478515625 510.41796875 197.399414062 465 c 4
 227.161132812 351.610351562 501.8984375 356.923828125 469.553710938 127.602539062 c 0
 455.603515625 28.697265625 324.451171875 -25 215.19921875 -25 c 0
 102.19921875 -25 52.2451171875 -2 52.2451171875 -2 c 1
EndSplineSet
Fore
SplineSet
52.2451171875 -2 m 1
 45.119140625 33 44.142578125 107 56.3544921875 167 c 1
 95.171875 122.356445312 218.567382812 50.2919921875 291.552734375 57 c 0
 363.623046875 63.6240234375 385.528320312 96.7099609375 376.4765625 141 c 0
 356.940429688 236.59375 115.13671875 257.981445312 90.4033203125 401 c 4
 67.0703125 535.923828125 206.952148438 621.249023438 344.013671875 619.802734375 c 4
 385.74609375 619.362304688 438.2578125 614.392578125 479.99609375 603 c 5
 483.961914062 535 474.615234375 484 456.794921875 440 c 5
 412.110351562 494 335.264648438 565.821289062 259.604492188 556 c 4
 204.352539062 548.828125 185.478515625 510.41796875 197.399414062 465 c 4
 227.161132812 351.610351562 501.8984375 356.923828125 469.553710938 127.602539062 c 0
 455.603515625 28.697265625 324.451171875 -25 215.19921875 -25 c 0
 102.19921875 -25 52.2451171875 -2 52.2451171875 -2 c 1
EndSplineSet
Layer: 2
SplineSet
51.765625 7 m 1
 47.765625 42 49.765625 105 58.765625 165 c 1
 141.765625 156 l 1
 144.765625 109 153.765625 65 177.765625 30 c 1
 136.765625 41 124.765625 95 117.765625 138 c 5
 149.765625 104 189.765625 37 275.765625 36 c 0
 335.765625 35 371.447265625 81.4873046875 375.765625 126 c 0
 388.765625 260 100.765625 249 76.765625 412 c 0
 60.765625 516 147.765625 609 304.765625 606 c 0
 398.765625 604 460.765625 580 460.765625 580 c 1
 464.765625 542 462.765625 471 457.765625 437 c 1
 377.765625 435 l 1
 376.765625 472 361.765625 533 340.765625 581 c 2
 395.765625 473 l 1
 381.765625 489 330.765625 544 246.765625 545 c 0
 190.765625 545 166.765625 512 166.765625 466 c 0
 166.765625 348.314453125 462.765625 349 478.765625 184 c 0
 489.765625 71 391.765625 -25 247.765625 -25 c 0
 134.765625 -25 51.765625 7 51.765625 7 c 1
EndSplineSet
EndChar

StartChar: o
Encoding: 111 111 8
AltUni2: 0000ba.ffffffff.0
GlifName: o
Width: 644
VWidth: 153
Flags: HMW
LayerCount: 3
Back
SplineSet
10.021484375 246 m 0
 11.021484375 90 87.021484375 -15 265.021484375 -18 c 0
 488.021484375 -22 577.021484375 148 582.021484375 324 c 0
 588.021484375 531 482.021484375 614 328.021484375 615 c 0
 145.021484375 616 8.021484375 466 10.021484375 246 c 0
127.021484375 298 m 4
 132.021484375 466 203.021484375 532 259.021484375 546 c 0
 367.143554688 573.030273438 469.021484375 476 474.021484375 308 c 0
 477.890625 177.99609375 429.021484375 60 332.021484375 49 c 0
 218.021484375 36 122.200195312 135.994140625 127.021484375 298 c 4
EndSplineSet
Fore
SplineSet
40.3291015625 261 m 0
 32.16015625 105.137695312 89.4248046875 -25 247.263671875 -28 c 0
 483.670898438 -32.2353515625 577.572265625 147.506835938 595.03125 294 c 0
 622.478515625 538.345703125 476.956054688 613.396484375 383.174804688 613 c 0
 189.14453125 612.227539062 52.0185546875 471 40.3291015625 261 c 0
145.66015625 378 m 0
 158.061523438 466.430664062 205.271484375 521.60546875 274.59375 533 c 0
 418.422851562 557.435546875 503.3828125 395 489.323242188 238 c 0
 477.69921875 108 409.262695312 34.9599609375 314.110351562 46 c 0
 189.3125 60.4443359375 125.97265625 234.857421875 145.66015625 378 c 0
EndSplineSet
Layer: 2
SplineSet
10.021484375 246 m 0
 11.021484375 90 87.021484375 -15 265.021484375 -18 c 0
 488.021484375 -22 577.021484375 148 582.021484375 324 c 0
 588.021484375 531 482.021484375 614 328.021484375 615 c 0
 145.021484375 616 8.021484375 466 10.021484375 246 c 0
127.021484375 298 m 4
 132.021484375 466 203.021484375 532 259.021484375 546 c 0
 367.143554688 573.030273438 469.021484375 476 474.021484375 308 c 0
 477.890625 177.99609375 429.021484375 60 332.021484375 49 c 0
 218.021484375 36 122.200195312 135.994140625 127.021484375 298 c 4
EndSplineSet
EndChar

StartChar: b
Encoding: 98 98 9
GlifName: b
Width: 724
VWidth: 79
Flags: HMW
LayerCount: 3
Back
SplineSet
153 669 m 0
 148.779296875 744.931640625 45 749 -7 748 c 1
 -16 812 l 5
 117 821 292 842 292 842 c 1
 250 664 235.985351562 272.2734375 261 64 c 0
 271.391601562 -22.5185546875 248.295898438 30.2939453125 297 33 c 1
 347 -18 l 1
 137 -17 l 1
 160.463867188 160.8203125 165.728515625 440.01171875 153 669 c 0
137 -18 m 1
 215 144 l 1
 215 144 300.826171875 22.9951171875 418 43 c 0
 500 57 563.999023438 157.706054688 569 321 c 0
 572.032226562 420.029296875 535.637695312 493.669921875 461 500.137695312 c 0
 372.248046875 507.828125 262.016601562 385.038085938 250 227 c 1
 219 292 l 1
 251 505 402 592 487 595 c 0
 631.909179688 600.114257812 688.848632812 496.370117188 673 326 c 0
 657 154 544 -28 314 -30 c 0
 216 -31 180 -24 137 -18 c 1
EndSplineSet
Fore
SplineSet
153 669 m 0
 148.779296875 744.931640625 45 749 -7 748 c 1
 -16 812 l 1
 117 821 292 842 292 842 c 1
 271.74115659 746.308282035 260.857860492 598.113302153 253.69921875 442 c 0
 249.227467607 405.826980861 245.739091393 368.878493192 242.603515625 333 c 1
 237.956040855 321.926743318 239.945208794 310.919222708 248.65116518 300.000006979 c 1
 249.203543694 211.537043898 253.208567016 128.87003151 261 64 c 0
 271.391601562 -22.5185546875 248.295898438 30.2939453125 297 33 c 1
 347 -18 l 1
 137 -17 l 1
 160.463867188 160.8203125 165.728443154 440.011714722 153 669 c 0
137 -18 m 1
 215 144 l 1
 215 144 300.826239048 22.99472374 418 43 c 0
 494.569536424 56.4964028777 554.331146132 153.579908142 559 311 c 0
 562.032226562 410.029296875 525.637725913 483.670275014 451 490.137695312 c 0
 366.454300578 497.546566291 261.447094379 379.252063406 250 227 c 1
 229 292 l 1
 259.805970149 505 405.167615841 592.111902014 487 595 c 0
 631.909179688 600.114257812 688.848385137 496.370140228 673 326 c 0
 657 154 543.996721793 -27.6530946756 314 -30 c 0
 216 -31 180 -24 137 -18 c 1
EndSplineSet
Layer: 2
SplineSet
153 687 m 0
 149.779296875 733.931640625 105 767 33 766 c 1
 28 830 l 1
 111 828 282 850 282 850 c 1
 240 672 243.985351562 290.2734375 261 82 c 0
 268.094726562 -4.8505859375 258.295898438 48.2939453125 307 51 c 1
 387 0 l 1
 141 21 l 1
 164.463867188 198.8203125 168.702148438 458.196289062 153 687 c 0
143 22 m 5
 215 152 l 5
 215 152 300.483398438 38.1171875 418 56 c 4
 510 70 568 176 569 339 c 4
 569.840820312 476.000976562 488 545 396 524 c 4
 340.419921875 511.313476562 285 458 249 374 c 5
 219 415 l 5
 267 548 382 610 467 613 c 4
 611.91015625 618.114257812 679 515 673 344 c 4
 667 172 584 -10 354 -12 c 4
 256 -13 186 5 143 22 c 5
EndSplineSet
EndChar

StartChar: r
Encoding: 114 114 10
GlifName: r
Width: 587
VWidth: 79
Flags: HMW
LayerCount: 3
Back
SplineSet
39 565 m 1
 174.344726562 580.5390625 306.766601562 608 308.784179688 608 c 1
 304.30078125 574.534179688 288.0703125 519.4296875 276.087890625 438 c 1
 310.272460938 423 l 1
 305.528320312 382.314453125 281.546875 337.262695312 279.63671875 289 c 0
 275.737304688 190.521484375 255.075195312 48 369.23046875 48 c 0
 372.23046875 48 375.23046875 48 377.23046875 48 c 2
 387.23046875 0 l 1
 60.23046875 0 l 1
 52.23046875 62 l 1
 172.087890625 50.345703125 185.255859375 140.15625 186.51953125 258 c 0
 187.05078125 307.549804688 193.012695312 389.530273438 184.275390625 422 c 0
 166.46484375 488.192382812 115.966796875 508.020507812 42.7333984375 504 c 1
 39 565 l 1
245 320 m 1
 254 424 368.69266702 591.616151407 501 612 c 0
 579.13671875 624.038085938 603 606 603 606 c 1
 605 568 595 488 578 443 c 5
 550.00390625 485.912109375 524.647460938 508.530273438 464 510 c 4
 375.353515625 512.1484375 281 386 279 265 c 1
 245 320 l 1
EndSplineSet
Fore
SplineSet
39 565 m 1
 174.344726562 580.5390625 306.766601562 608 308.784179688 608 c 1
 304.30078125 574.534179688 288.0703125 519.4296875 276.087890625 438 c 1
 310.272460938 423 l 1
 305.528320312 382.314453125 281.546875 337.262695312 279.63671875 289 c 0
 275.737304688 190.521484375 255.075195312 48 369.23046875 48 c 0
 372.23046875 48 375.23046875 48 377.23046875 48 c 2
 387.23046875 0 l 1
 60.23046875 0 l 1
 52.23046875 62 l 1
 172.087890625 50.345703125 185.255859375 140.15625 186.51953125 258 c 0
 187.05078125 307.549804688 193.012695312 389.530273438 184.275390625 422 c 0
 166.46484375 488.192382812 115.966796875 508.020507812 42.7333984375 504 c 1
 39 565 l 1
245 320 m 1
 254 424 338.692382812 591.616210938 471 612 c 0
 549.13671875 624.038085938 573 606 573 606 c 1
 575 568 565 488 548 443 c 1
 520.00390625 485.912109375 494.647460938 508.530273438 434 510 c 0
 345.353515625 512.1484375 281 386 279 265 c 1
 245 320 l 1
EndSplineSet
Layer: 2
SplineSet
49 595 m 1
 64 594 80 594 97 594 c 0
 191 594 293 608 293 608 c 1
 293 608 276 486 270 460 c 1
 293 468 l 1
 290 402 280 349 280 279 c 0
 280 193 291 100 304 0 c 1
 165 0 l 1
 176 144 191 206 191 328 c 0
 191 455.258789062 194.318359375 530.625976562 56 534 c 1
 49 595 l 1
52 63 m 1
 64 62 75 61 85 61 c 0
 140 61 174 82 177 131 c 1
 288 150 l 1
 288 146 288 142 288 139 c 0
 288 63 357 49 405 49 c 0
 408 49 411 49 413 49 c 1
 423 1 l 1
 60 1 l 1
 52 63 l 1
215 350 m 1
 224 454 352 563 470 601 c 0
 528 620 573 609 573 609 c 1
 575 571 565 461 558 416 c 1
 498 422 l 1
 477 465 448 504 399 538 c 1
 520 475 l 1
 520 475 456 504 384 483 c 0
 318 464 261 416 259 295 c 1
 215 350 l 1
461 429 m 1049
EndSplineSet
Colour: ff0000
EndChar

StartChar: period
Encoding: 46 46 11
GlifName: period
Width: 276
VWidth: 79
Flags: HMW
LayerCount: 3
Back
SplineSet
65 51.4892578125 m 0
 65 103.21875 106.19921875 136.37890625 156.700195312 136.37890625 c 0
 217.8359375 136.37890625 248.401367188 93.9345703125 248.401367188 42.2060546875 c 0
 248.401367188 -9.5224609375 207.204101562 -44.009765625 156.700195312 -44.009765625 c 0
 106.19921875 -44.009765625 65 -0.23828125 65 51.4892578125 c 0
EndSplineSet
Fore
SplineSet
65 51.4892578125 m 0
 65 103.21875 106.19921875 136.37890625 156.700195312 136.37890625 c 0
 217.8359375 136.37890625 248.401367188 93.9345703125 248.401367188 42.2060546875 c 0
 248.401367188 -9.5224609375 207.204101562 -44.009765625 156.700195312 -44.009765625 c 0
 106.19921875 -44.009765625 65 -0.23828125 65 51.4892578125 c 0
EndSplineSet
Layer: 2
SplineSet
65 51.4892578125 m 0
 65 103.21875 106.19921875 136.37890625 156.700195312 136.37890625 c 0
 217.8359375 136.37890625 248.401367188 93.9345703125 248.401367188 42.2060546875 c 0
 248.401367188 -9.5224609375 207.204101562 -44.009765625 156.700195312 -44.009765625 c 0
 106.19921875 -44.009765625 65 -0.23828125 65 51.4892578125 c 0
EndSplineSet
EndChar

StartChar: t
Encoding: 116 116 12
GlifName: t
Width: 485
VWidth: 79
Flags: HMW
LayerCount: 3
Back
SplineSet
20 584 m 5
 54 586 118 583 140 584 c 5
 140 584 145 678 147 767 c 5
 256 792 l 5
 254.51953125 533.103515625 151.453125 -39.9326171875 435 95 c 1
 461 60 l 1
 440 36 369 -12 288 -13 c 0
 204 -14 127 42 131 140 c 4
 133 193 144 340 137 498 c 5
 137 498 103 517 35 517 c 5
 20 584 l 5
142 584 m 1
 164 585 187 583 212 584 c 1
 407 584 l 1
 419 520 l 1
 242 505 l 1
 217 506 184 465 156 485 c 1
 142 584 l 1
EndSplineSet
Fore
SplineSet
20 584 m 5
 54 586 118 583 140 584 c 5
 140 584 145 678 147 767 c 5
 256 792 l 5
 254.51953125 533.103515625 151.453125 -39.9326171875 435 95 c 1
 461 60 l 1
 440 36 369 -12 288 -13 c 0
 204 -14 127 42 131 140 c 4
 133 193 144 340 137 498 c 5
 137 498 103 517 35 517 c 5
 20 584 l 5
142 584 m 1
 164 585 187 583 212 584 c 1
 407 584 l 1
 419 520 l 1
 242 505 l 1
 217 506 184 465 156 485 c 1
 142 584 l 1
EndSplineSet
Layer: 2
SplineSet
20 584 m 5
 54 586 118 583 140 584 c 5
 140 584 145 678 147 767 c 5
 256 792 l 5
 254.51953125 533.103515625 151.453125 -39.9326171875 435 95 c 1
 461 60 l 1
 440 36 369 -12 288 -13 c 0
 204 -14 127 42 131 140 c 4
 133 193 144 340 137 498 c 5
 137 498 103 517 35 517 c 5
 20 584 l 5
142 584 m 1
 164 585 187 583 212 584 c 1
 407 584 l 1
 419 520 l 1
 242 505 l 1
 217 506 184 465 156 485 c 1
 142 584 l 1
EndSplineSet
EndChar

StartChar: p
Encoding: 112 112 13
GlifName: p
Width: 756
VWidth: 79
Flags: HMW
LayerCount: 3
Back
SplineSet
181 34 m 1
 247 162 l 1
 247 162 332.826171875 40.9951171875 450 61 c 0
 532 75 595.999023438 175.706054688 601 339 c 0
 604.032226562 438.029296875 557.770507812 513.44921875 473 518.137695312 c 0
 382.208984375 523.159179688 294.016601562 403.038085938 282 245 c 1
 244 286 l 5
 272 529 434 610 519 613 c 0
 663.909179688 618.114257812 720.848632812 514.370117188 705 344 c 0
 689 172 586 -10 356 -12 c 0
 258 -13 214 23 181 34 c 1
40 595 m 1
 55 594 71 594 88 594 c 0
 182 594 294 608 294 608 c 1
 291.125 566.114257812 279.938476562 447.448242188 278 388 c 0
 276.466796875 354.270507812 289.627929688 408.266601562 287.217773438 362 c 1
 284.912109375 317.733398438 283 273.2265625 283 239 c 0
 283 153 288 -117 301 -217 c 1
 156 -217 l 1
 167 -73 183 166 183 258 c 0
 183 448.081054688 184.337890625 537.791015625 47 534 c 1
 40 595 l 1
43 -156 m 1
 55 -157 66 -158 76 -158 c 0
 131 -158 160 -150 163 -101 c 1
 292 -82 l 1
 292 -86 292 -90 292 -93 c 0
 292 -169 351 -170 399 -170 c 0
 402 -170 405 -170 407 -170 c 1
 417 -218 l 1
 51 -218 l 1
 43 -156 l 1
EndSplineSet
Fore
SplineSet
181 34 m 1
 247 162 l 1
 247 162 332.826171875 40.9951171875 450 61 c 0
 532 75 595.999023438 175.706054688 601 339 c 0
 604.032226562 438.029296875 557.770507812 513.44921875 473 518.137695312 c 0
 382.208984375 523.159179688 294.016601562 403.038085938 282 245 c 1
 244 286 l 5
 272 529 434 610 519 613 c 0
 663.909179688 618.114257812 720.848632812 514.370117188 705 344 c 0
 689 172 586 -10 356 -12 c 0
 258 -13 214 23 181 34 c 1
40 595 m 1
 55 594 71 594 88 594 c 0
 182 594 294 608 294 608 c 1
 291.125 566.114257812 279.938476562 447.448242188 278 388 c 0
 276.466796875 354.270507812 289.627929688 408.266601562 287.217773438 362 c 1
 284.912109375 317.733398438 283 273.2265625 283 239 c 0
 283 153 288 -117 301 -217 c 1
 156 -217 l 1
 167 -73 183 166 183 258 c 0
 183 448.081054688 184.337890625 537.791015625 47 534 c 1
 40 595 l 1
43 -156 m 1
 55 -157 66 -158 76 -158 c 0
 131 -158 160 -150 163 -101 c 1
 292 -82 l 1
 292 -86 292 -90 292 -93 c 0
 292 -169 351 -170 399 -170 c 0
 402 -170 405 -170 407 -170 c 1
 417 -218 l 1
 51 -218 l 1
 43 -156 l 1
EndSplineSet
Layer: 2
SplineSet
183 32 m 5
 255 162 l 5
 255 162 330.483398438 38.1171875 448 56 c 0
 540 70 598 176 599 339 c 0
 599.840820312 476.000976562 518 545 426 524 c 0
 370.419921875 511.313476562 315 458 279 374 c 1
 249 415 l 1
 297 548 412 610 497 613 c 0
 641.91015625 618.114257812 709 515 703 344 c 0
 697 172 614 -10 384 -12 c 0
 286 -13 226 15 183 32 c 5
40 595 m 1
 55 594 71 594 88 594 c 0
 182 594 294 608 294 608 c 1
 294 608 277 506 271 480 c 1
 294 488 l 1
 291 422 283 309 283 239 c 0
 283 153 288 -117 301 -217 c 1
 156 -217 l 1
 167 -73 183 166 183 258 c 0
 183 448.081054688 184.337890625 537.791015625 47 534 c 1
 40 595 l 1
43 -156 m 1
 55 -157 66 -158 76 -158 c 0
 131 -158 160 -150 163 -101 c 1
 292 -82 l 1
 292 -86 292 -90 292 -93 c 0
 292 -169 351 -170 399 -170 c 0
 402 -170 405 -170 407 -170 c 1
 417 -218 l 1
 51 -218 l 1
 43 -156 l 1
EndSplineSet
EndChar

StartChar: v
Encoding: 118 118 14
GlifName: v
Width: 641
VWidth: 79
Flags: HMW
LayerCount: 3
Back
SplineSet
660 538 m 1
 590.022460938 535.735351562 582.594726562 496.991210938 564.810546875 455.861328125 c 0
 487.965820312 278.13671875 404.959960938 87.9033203125 367.661132812 7.6162109375 c 9
 253.399414062 -25.650390625 l 1
 214.270507812 85.927734375 181.459960938 205.581054688 101.497070312 442.43359375 c 5
 82.3037109375 506.984375 56.650390625 532.875976562 0 532 c 1
 -14 596 l 1
 100 590.78125 184 592.904296875 298 596 c 1
 312 542 l 1
 236 536 197 525 212 460 c 1
 211.7265625 459.962890625 l 1
 229.463867188 361.939453125 262.78125 251.842773438 291.678710938 147 c 1
 294.244140625 124.912109375 313 56 310.991210938 62 c 1
 340.858398438 133.987304688 426.057617188 302.979492188 489.733398438 468.791992188 c 1
 507.560546875 526.806640625 455.559570312 535.975585938 388 533 c 1
 379 596 l 1
 475.666992188 590.463867188 552.333007812 592.002929688 649 596 c 1
 660 538 l 1
EndSplineSet
Fore
SplineSet
660 538 m 1
 590.022460938 535.735351562 582.594726562 496.991210938 564.810546875 455.861328125 c 0
 487.965820312 278.13671875 404.959960938 87.9033203125 367.661132812 7.6162109375 c 9
 253.399414062 -25.650390625 l 1
 214.270507812 85.927734375 181.459960938 205.581054688 101.497070312 442.43359375 c 5
 82.3037109375 506.984375 56.650390625 532.875976562 0 532 c 1
 -14 596 l 1
 100 590.78125 184 592.904296875 298 596 c 1
 312 542 l 1
 236 536 197 525 212 460 c 1
 211.7265625 459.962890625 l 1
 229.463867188 361.939453125 262.78125 251.842773438 291.678710938 147 c 1
 294.244140625 124.912109375 313 56 310.991210938 62 c 1
 340.858398438 133.987304688 426.057617188 302.979492188 489.733398438 468.791992188 c 1
 507.560546875 526.806640625 455.559570312 535.975585938 388 533 c 1
 379 596 l 1
 475.666992188 590.463867188 552.333007812 592.002929688 649 596 c 1
 660 538 l 1
EndSplineSet
Layer: 2
SplineSet
660 538 m 1
 590.022460938 535.735351562 582.594726562 496.991210938 564.810546875 455.861328125 c 0
 487.965820312 278.13671875 404.959960938 87.9033203125 367.661132812 7.6162109375 c 9
 253.399414062 -25.650390625 l 1
 214.270507812 85.927734375 181.459960938 205.581054688 101.497070312 442.43359375 c 5
 82.3037109375 506.984375 56.650390625 532.875976562 0 532 c 1
 -14 596 l 1
 100 590.78125 184 592.904296875 298 596 c 1
 312 542 l 1
 236 536 197 525 212 460 c 1
 211.7265625 459.962890625 l 1
 229.463867188 361.939453125 262.78125 251.842773438 291.678710938 147 c 1
 294.244140625 124.912109375 313 56 310.991210938 62 c 1
 340.858398438 133.987304688 426.057617188 302.979492188 489.733398438 468.791992188 c 1
 507.560546875 526.806640625 455.559570312 535.975585938 388 533 c 1
 379 596 l 1
 475.666992188 590.463867188 552.333007812 592.002929688 649 596 c 1
 660 538 l 1
EndSplineSet
EndChar

StartChar: m
Encoding: 109 109 15
GlifName: m
Width: 1181
VWidth: 79
Flags: HMW
LayerCount: 3
Back
SplineSet
831.23046875 58 m 1
 909.0703125 58 946.495117188 67.4052734375 958.486328125 237 c 0
 963.1328125 302.711914062 960.583007812 368.310546875 955.452148438 436 c 0
 951.334960938 490.321289062 916.279296875 512.572265625 883.267578125 512.791992188 c 0
 777.765625 513.494140625 668.326171875 321.228515625 666.166015625 214 c 1
 628.744140625 238 l 1
 669.283203125 486 799.069335938 611.306640625 926.12109375 611 c 0
 985.923828125 610.85546875 1046.40429688 575.135742188 1063.35449219 512 c 0
 1081.5078125 444.3828125 1061.06835938 342.143554688 1057.79785156 242 c 0
 1054.60449219 144.241210938 1063.74804688 50 1150.23046875 50 c 0
 1153.23046875 50 1155.23046875 50 1157.23046875 50 c 2
 1167.23046875 0 l 1
 841.23046875 0 l 1
 831.23046875 58 l 1
451.23046875 58 m 1
 529.0703125 58 566.495117188 67.4052734375 578.486328125 237 c 0
 583.1328125 302.711914062 580.583007812 368.310546875 575.452148438 436 c 0
 571.334960938 490.321289062 536.279296875 512.572265625 503.267578125 512.791992188 c 0
 397.765608267 513.494215099 288.326171875 321.228515625 286.166015625 214 c 1
 248.744140625 238 l 1
 289.283203125 486 419.069335938 611.306640625 546.12109375 611 c 0
 605.923828125 610.85546875 666.404296875 575.135742188 683.354492188 512 c 0
 701.507706254 444.38327807 681.068359375 342.143554688 677.797851562 242 c 0
 674.604492188 144.241210938 683.748046875 50 770.23046875 50 c 0
 773.23046875 50 775.23046875 50 777.23046875 50 c 2
 787.23046875 0 l 1
 461.23046875 0 l 1
 451.23046875 58 l 1
49 555 m 5
 184.344726562 568.5390625 325.766601562 608 327.784179688 608 c 5
 320.493164062 553.265625 295.45703125 436.028320312 289.63671875 289 c 4
 285.737304688 190.521484375 265.075195312 48 379.23046875 48 c 4
 382.23046875 48 385.23046875 48 387.23046875 48 c 6
 397.23046875 0 l 5
 70.23046875 0 l 5
 62.23046875 62 l 5
 192.087890625 50.345703125 206.623046875 170.190429688 203.51953125 288 c 4
 201.133789062 378.560546875 236.796875 489.993164062 52.7333984375 494 c 5
 49 555 l 5
EndSplineSet
Fore
SplineSet
831.23046875 58 m 1
 909.0703125 58 946.495117188 67.4052734375 958.486328125 237 c 0
 963.1328125 302.711914062 960.583007812 368.310546875 955.452148438 436 c 0
 951.334960938 490.321289062 916.279296875 512.572265625 883.267578125 512.791992188 c 0
 777.765625 513.494140625 668.326171875 321.228515625 666.166015625 214 c 1
 628.744140625 238 l 1
 669.283203125 486 799.069335938 611.306640625 926.12109375 611 c 0
 985.923828125 610.85546875 1046.40429688 575.135742188 1063.35449219 512 c 0
 1081.5078125 444.3828125 1061.06835938 342.143554688 1057.79785156 242 c 0
 1054.60449219 144.241210938 1063.74804688 50 1150.23046875 50 c 0
 1153.23046875 50 1155.23046875 50 1157.23046875 50 c 2
 1167.23046875 0 l 1
 841.23046875 0 l 1
 831.23046875 58 l 1
451.23046875 58 m 1
 529.0703125 58 566.495117188 67.4052734375 578.486328125 237 c 0
 583.1328125 302.711914062 580.583007812 368.310546875 575.452148438 436 c 0
 571.334960938 490.321289062 536.279296875 512.572265625 503.267578125 512.791992188 c 0
 397.765608267 513.494215099 288.326171875 321.228515625 286.166015625 214 c 1
 248.744140625 238 l 1
 289.283203125 486 419.069335938 611.306640625 546.12109375 611 c 0
 605.923828125 610.85546875 666.404296875 575.135742188 683.354492188 512 c 0
 701.507706254 444.38327807 681.068359375 342.143554688 677.797851562 242 c 0
 674.604492188 144.241210938 683.748046875 50 770.23046875 50 c 0
 773.23046875 50 775.23046875 50 777.23046875 50 c 2
 787.23046875 0 l 1
 461.23046875 0 l 1
 451.23046875 58 l 1
49 555 m 5
 184.344726562 568.5390625 325.766601562 608 327.784179688 608 c 5
 320.493164062 553.265625 295.45703125 436.028320312 289.63671875 289 c 4
 285.737304688 190.521484375 265.075195312 48 379.23046875 48 c 4
 382.23046875 48 385.23046875 48 387.23046875 48 c 6
 397.23046875 0 l 5
 70.23046875 0 l 5
 62.23046875 62 l 5
 192.087890625 50.345703125 206.623046875 170.190429688 203.51953125 288 c 4
 201.133789062 378.560546875 236.796875 489.993164062 52.7333984375 494 c 5
 49 555 l 5
EndSplineSet
Layer: 2
SplineSet
641.497070312 454 m 1
 690.497070312 522 800.497070312 612 907.497070312 612 c 0
 983.497070312 612 1035.49707031 582 1049.49707031 488 c 0
 1052.49707031 466 1054.49707031 408 1054.49707031 363 c 0
 1054.49707031 244 1053.49707031 82 1049.49707031 0 c 1
 924.497070312 0 l 1
 942.497070312 79 961.497070312 202 961.497070312 303 c 0
 961.497070312 347 959.497070312 387 955.497070312 417 c 0
 946.497070312 480 894.497070312 513 835.497070312 513 c 0
 734.497070312 513 666.497070312 417 666.497070312 417 c 1
 641.497070312 454 l 1
827.497070312 62 m 1
 831.497070312 62 849.497070312 59 863.497070312 59 c 0
 902.497070312 59 941.497070312 69 947.497070312 140 c 1
 1052.49707031 139 l 1
 1049.49707031 60 1109.49707031 50 1136.49707031 50 c 0
 1139.49707031 50 1141.49707031 50 1143.49707031 50 c 1
 1153.49707031 0 l 1
 837.497070312 0 l 1
 827.497070312 62 l 1
74.4970703125 595 m 1
 89.4970703125 594 105.497070312 594 122.497070312 594 c 0
 216.497070312 594 318.497070312 608 318.497070312 608 c 1
 318.497070312 608 301.497070312 496 295.497070312 470 c 1
 295.497070312 461 297.497070312 457 300.497070312 457 c 0
 307.497070312 457 318.497070312 478 318.497070312 478 c 1
 316.497070312 437 306.497070312 395 306.497070312 351 c 0
 306.497070312 327 306.497070312 304 306.497070312 279 c 0
 306.497070312 193 315.497070312 100 325.497070312 0 c 1
 190.497070312 0 l 1
 201.497070312 144 214.497070312 226 214.497070312 318 c 0
 214.497070312 443.881835938 218.553710938 530.657226562 81.4970703125 534 c 1
 74.4970703125 595 l 1
77.4970703125 62 m 1
 89.4970703125 61 100.497070312 60 110.497070312 60 c 0
 165.497070312 60 197.497070312 81 200.497070312 130 c 1
 313.497070312 143 l 1
 313.497070312 139 313.497070312 135 313.497070312 132 c 0
 313.497070312 56 362.497070312 48 390.497070312 48 c 0
 393.497070312 48 396.497070312 48 398.497070312 48 c 1
 408.497070312 0 l 1
 85.4970703125 0 l 1
 77.4970703125 62 l 1
262.497070312 454 m 1
 311.497070312 522 421.497070312 612 528.497070312 612 c 0
 604.497070312 612 656.497070312 582 670.497070312 488 c 0
 673.497070312 466 675.497070312 408 675.497070312 363 c 0
 675.497070312 244 674.497070312 82 670.497070312 0 c 1
 545.497070312 0 l 1
 563.497070312 79 582.497070312 202 582.497070312 303 c 0
 582.497070312 347 580.497070312 387 576.497070312 417 c 0
 567.497070312 480 515.497070312 513 456.497070312 513 c 0
 355.497070312 513 287.497070312 417 287.497070312 417 c 1
 262.497070312 454 l 1
448.497070312 62 m 1
 452.497070312 62 470.497070312 59 484.497070312 59 c 0
 523.497070312 59 562.497070312 69 568.497070312 140 c 1
 673.497070312 139 l 1
 670.497070312 60 730.497070312 50 757.497070312 50 c 0
 760.497070312 50 762.497070312 50 764.497070312 50 c 1
 774.497070312 0 l 1
 458.497070312 0 l 1
 448.497070312 62 l 1
EndSplineSet
EndChar

StartChar: g
Encoding: 103 103 16
GlifName: g
Width: 789
VWidth: 153
Flags: HMW
LayerCount: 3
Back
SplineSet
50.4326171875 -192 m 0
 17.1435546875 -89.7373046875 117.432617188 27 250.432617188 62 c 1
 314.432617188 56 l 21
 231.432617188 26 182.237304688 -22.2861328125 168.432617188 -75 c 0
 148.537109375 -150.971679688 226.432617188 -215 302.432617188 -215 c 0
 453.432617188 -215 541.432617188 -138 541.432617188 -66 c 0
 541.432617188 83 147.432617188 60 71.4326171875 57 c 1
 73.4326171875 74 66.4326171875 96 60.4326171875 119 c 1
 90.4326171875 154 155.432617188 201 212.432617188 240 c 1
 262.432617188 226 l 1
 231.432617188 203 161.432617188 123 221.432617188 130 c 1
 478.432617188 150 657.432617188 124 656.432617188 -38 c 0
 655.432617188 -181 443.431640625 -292.821289062 251.432617188 -294 c 0
 122.431640625 -294.791992188 69.009765625 -249.069335938 50.4326171875 -192 c 0
76.4326171875 370 m 0
 75.4326171875 511 211.432617188 611 353.432617188 611 c 0
 468.432617188 611 580.432617188 571 580.432617188 453 c 0
 580.432617188 301 446.432617188 217 310.432617188 217 c 0
 165.432617188 217 77.4326171875 258 76.4326171875 370 c 0
197.432617188 404 m 0
 197.432617188 312 259.432617188 273 324.432617188 274 c 0
 408.428710938 275.291992188 462.432617188 347 462.432617188 426 c 0
 462.432617188 499 423.432617188 558 335.432617188 558 c 0
 267.432617188 558 197.432617188 499 197.432617188 404 c 0
526.432617188 520 m 17
 556.432617188 522 636.432617188 551 738.432617188 611 c 1
 744.432617188 574 745.432617188 506 741.432617188 476 c 1
 685.432617188 478 619.432617188 478 568.432617188 478 c 9
 526.432617188 520 l 17
EndSplineSet
Fore
SplineSet
47.9775390625 -172 m 0
 24.6875 -69.7373046875 113.749023438 57 246.749023438 92 c 1
 320.749023438 86 l 17
 208.49609375 53.3046875 156.67578125 -34.0126953125 171.276367188 -116.26953125 c 0
 183.638671875 -185.916992188 243.022460938 -226.297851562 371.450195312 -204 c 0
 449.958007812 -190.370117188 511.432617188 -138 511.432617188 -66 c 0
 511.432617188 83 271.293945312 120 61.4326171875 67 c 1
 53.4326171875 84 53.66015625 96 51.66015625 119 c 1
 81.6611328125 154 145.432617188 201 202.432617188 240 c 1
 252.432617188 226 l 1
 221.432617188 203 160.205078125 133 171.432617188 130 c 1
 424.749023438 180 649.981445312 112.178710938 637.66015625 -48 c 0
 626.661132812 -191 452.934570312 -286.225585938 260.205078125 -284 c 0
 130.137695312 -282.498046875 61.166015625 -229.912109375 47.9775390625 -172 c 0
86.4326171875 370 m 0
 88.658203125 510.596679688 241.432617188 611 383.432617188 611 c 0
 498.432617188 611 580.432617188 571 580.432617188 453 c 0
 580.432617188 301 437.661132812 207 301.661132812 207 c 0
 156.661132812 207 84.9775390625 278 86.4326171875 370 c 0
193.749023438 414 m 0
 190.557617188 322.439453125 258.661132812 267 353.66015625 274 c 4
 437.489304603 280.176948112 485.793945312 367.600585938 462.432617188 446 c 0
 443.66015625 509 414.66015625 553 326.66015625 548 c 4
 258.7696536 544.142585077 196.327148438 488 193.749023438 414 c 0
526.432617188 520 m 17
 556.432617188 522 636.432617188 551 738.432617188 611 c 1
 744.432617188 574 745.432617188 506 741.432617188 476 c 1
 684.205078125 488 586.977539062 498 535.977539062 498 c 9
 526.432617188 520 l 17
EndSplineSet
Layer: 2
SplineSet
50.4326171875 -192 m 0
 17.1435546875 -89.7373046875 117.432617188 27 250.432617188 62 c 1
 314.432617188 56 l 21
 231.432617188 26 182.237304688 -22.2861328125 168.432617188 -75 c 0
 148.537109375 -150.971679688 226.432617188 -215 302.432617188 -215 c 0
 453.432617188 -215 541.432617188 -138 541.432617188 -66 c 0
 541.432617188 83 147.432617188 60 71.4326171875 57 c 1
 73.4326171875 74 66.4326171875 96 60.4326171875 119 c 1
 90.4326171875 154 155.432617188 201 212.432617188 240 c 1
 262.432617188 226 l 1
 231.432617188 203 161.432617188 123 221.432617188 130 c 1
 478.432617188 150 657.432617188 124 656.432617188 -38 c 0
 655.432617188 -181 443.431640625 -292.821289062 251.432617188 -294 c 0
 122.431640625 -294.791992188 69.009765625 -249.069335938 50.4326171875 -192 c 0
76.4326171875 370 m 0
 75.4326171875 511 211.432617188 611 353.432617188 611 c 0
 468.432617188 611 580.432617188 571 580.432617188 453 c 0
 580.432617188 301 446.432617188 217 310.432617188 217 c 0
 165.432617188 217 77.4326171875 258 76.4326171875 370 c 0
197.432617188 404 m 0
 197.432617188 312 259.432617188 273 324.432617188 274 c 0
 408.428710938 275.291992188 462.432617188 347 462.432617188 426 c 0
 462.432617188 499 423.432617188 558 335.432617188 558 c 0
 267.432617188 558 197.432617188 499 197.432617188 404 c 0
526.432617188 520 m 17
 556.432617188 522 636.432617188 551 738.432617188 611 c 1
 744.432617188 574 745.432617188 506 741.432617188 476 c 1
 685.432617188 478 619.432617188 478 568.432617188 478 c 9
 526.432617188 520 l 17
EndSplineSet
EndChar

StartChar: H
Encoding: 72 72 17
GlifName: H_
Width: 902
VWidth: 79
Flags: HMW
LayerCount: 3
Back
SplineSet
42 61 m 1
 118 57 148 89 155 137 c 1
 274 146 l 1
 272 51 348 50 366 51 c 1
 376 0 l 1
 52 0 l 1
 42 61 l 1
61 800 m 5
 174 792 253 795 361 800 c 5
 371 749 l 5
 353 750 284 749 286 654 c 5
 160 663 l 5
 153 711 143 743 67 739 c 5
 61 800 l 5
127 0 m 1
 127 0 146 72 154 136 c 1
 166 298 166 583 156 768 c 1
 299 793 l 1
 274 593 270 208 274 145 c 0
 277 101 256 49 338 49 c 1
 322 1 l 1
 127 0 l 1
194 367 m 1
 194 433 l 1
 603 434 l 1
 747 441 l 1
 747 370 l 1
 194 367 l 1
537 58 m 1
 613 54 648 92 652 140 c 1
 770 139 l 1
 767 49 833 49 852 50 c 1
 862 0 l 1
 547 0 l 1
 537 58 l 1
552 800 m 1
 668 790 750 794 856 800 c 1
 861 749 l 1
 843 750 783 749 779 654 c 1
 655 663 l 1
 648 711 636 743 560 739 c 1
 552 800 l 1
624 0 m 1
 624 0 643 72 651 136 c 1
 663 298 660 583 650 768 c 1
 792 793 l 1
 767 593 767 208 770 145 c 0
 772 101 752 49 834 49 c 1
 818 1 l 1
 624 0 l 1
EndSplineSet
Fore
SplineSet
42 61 m 1
 118 57 148 89 155 137 c 1
 274 146 l 1
 272 51 348 50 366 51 c 1
 376 0 l 1
 52 0 l 1
 42 61 l 1
61 800 m 5
 174 792 253 795 361 800 c 5
 371 749 l 5
 353 750 284 749 286 654 c 5
 160 663 l 5
 153 711 143 743 67 739 c 5
 61 800 l 5
127 0 m 1
 127 0 146 72 154 136 c 1
 166 298 166 583 156 768 c 1
 299 793 l 1
 274 593 270 208 274 145 c 0
 277 101 256 49 338 49 c 1
 322 1 l 1
 127 0 l 1
194 367 m 1
 194 433 l 1
 603 434 l 1
 747 441 l 1
 747 370 l 1
 194 367 l 1
537 58 m 1
 613 54 648 92 652 140 c 1
 770 139 l 1
 767 49 833 49 852 50 c 1
 862 0 l 1
 547 0 l 1
 537 58 l 1
552 800 m 1
 668 790 750 794 856 800 c 1
 861 749 l 1
 843 750 783 749 779 654 c 1
 655 663 l 1
 648 711 636 743 560 739 c 1
 552 800 l 1
624 0 m 1
 624 0 643 72 651 136 c 1
 663 298 660 583 650 768 c 1
 792 793 l 1
 767 593 767 208 770 145 c 0
 772 101 752 49 834 49 c 1
 818 1 l 1
 624 0 l 1
EndSplineSet
Layer: 2
SplineSet
42 61 m 1
 118 57 148 89 155 137 c 1
 274 146 l 1
 272 51 348 50 366 51 c 1
 376 0 l 1
 52 0 l 1
 42 61 l 1
61 800 m 5
 174 792 253 795 361 800 c 5
 371 749 l 5
 353 750 284 749 286 654 c 5
 160 663 l 5
 153 711 143 743 67 739 c 5
 61 800 l 5
127 0 m 1
 127 0 146 72 154 136 c 1
 166 298 166 583 156 768 c 1
 299 793 l 1
 274 593 270 208 274 145 c 0
 277 101 256 49 338 49 c 1
 322 1 l 1
 127 0 l 1
194 367 m 1
 194 433 l 1
 603 434 l 1
 747 441 l 1
 747 370 l 1
 194 367 l 1
537 58 m 1
 613 54 648 92 652 140 c 1
 770 139 l 1
 767 49 833 49 852 50 c 1
 862 0 l 1
 547 0 l 1
 537 58 l 1
552 800 m 1
 668 790 750 794 856 800 c 1
 861 749 l 1
 843 750 783 749 779 654 c 1
 655 663 l 1
 648 711 636 743 560 739 c 1
 552 800 l 1
624 0 m 1
 624 0 643 72 651 136 c 1
 663 298 660 583 650 768 c 1
 792 793 l 1
 767 593 767 208 770 145 c 0
 772 101 752 49 834 49 c 1
 818 1 l 1
 624 0 l 1
EndSplineSet
EndChar

StartChar: A
Encoding: 65 65 18
GlifName: A_
Width: 863
VWidth: 79
Flags: HMW
LayerCount: 3
Back
SplineSet
42 61 m 1
 123 52 145 86 164 136 c 0
 257 377 326 583 381 768 c 5
 420 774 468 786 507 799 c 5
 568 589 637 418 737 150 c 0
 754 104 775 43 843 55 c 1
 853 0 l 1
 741 0 629 0 517 0 c 1
 507 64 l 1
 578 53 629 65 613 124 c 0
 579 249 505 396 462 541 c 4
 454 580 439 635 431 676 c 5
 371 468 279 210 264 145 c 0
 243 49 318 50 366 51 c 1
 376 0 l 1
 268 0 160 0 52 0 c 1
 42 61 l 1
285 308 m 1
 285 366 l 1
 608 374 l 1
 608 311 l 1
 285 308 l 1
EndSplineSet
Fore
SplineSet
42 61 m 1
 123 52 145 86 164 136 c 0
 257 377 326 583 381 768 c 5
 420 774 468 786 507 799 c 5
 568 589 637 418 737 150 c 0
 754 104 775 43 843 55 c 1
 853 0 l 1
 741 0 629 0 517 0 c 1
 507 64 l 1
 578 53 629 65 613 124 c 0
 579 249 505 396 462 541 c 4
 454 580 439 635 431 676 c 5
 371 468 279 210 264 145 c 0
 243 49 318 50 366 51 c 1
 376 0 l 1
 268 0 160 0 52 0 c 1
 42 61 l 1
285 308 m 1
 285 366 l 1
 608 374 l 1
 608 311 l 1
 285 308 l 1
EndSplineSet
Layer: 2
SplineSet
42 61 m 1
 123 52 145 86 164 136 c 0
 257 377 326 583 381 768 c 5
 420 774 468 786 507 799 c 5
 568 589 637 418 737 150 c 0
 754 104 775 43 843 55 c 1
 853 0 l 1
 741 0 629 0 517 0 c 1
 507 64 l 1
 578 53 629 65 613 124 c 0
 579 249 505 396 462 541 c 4
 454 580 439 635 431 676 c 5
 371 468 279 210 264 145 c 0
 243 49 318 50 366 51 c 1
 376 0 l 1
 268 0 160 0 52 0 c 1
 42 61 l 1
285 308 m 1
 285 366 l 1
 608 374 l 1
 608 311 l 1
 285 308 l 1
EndSplineSet
EndChar

StartChar: B
Encoding: 66 66 19
GlifName: B_
Width: 718
VWidth: 79
Flags: HMWO
LayerCount: 3
Back
SplineSet
17 798 m 1
 205 786 246 803 396 803 c 0
 531 803 612 738 613 618 c 0
 614 524 548 417 441 412 c 1
 473 437 l 1
 613 401 669.073242188 322.999023438 668 220 c 4
 666 28 521 0 320 0 c 1
 252 -1 107 0 33 0 c 1
 23 61 l 1
 102 51 133 77 135 127 c 0
 144 342 147 468 139 628 c 0
 136 686 119 742 27 735 c 1
 17 798 l 1
244 375 m 1
 243 275 243 197 253 123 c 0
 260 65 305 61 358 61 c 0
 471 62 546 119 546 219 c 0
 546 306 475 383 370 386 c 0
 327 387 279 382 244 375 c 1
246 450 m 1
 442 426 488 530 490 587 c 0
 493 677 433 745 355 747 c 0
 309 748 275 739 252 730 c 1
 244 653 247 548 246 450 c 1
EndSplineSet
Fore
SplineSet
17 798 m 1
 205 786 246 803 396 803 c 0
 531 803 611.723432165 737.997376532 613 618 c 0
 614 524 548 417 441 412 c 1
 473 437 l 5
 583 412.976958525 669.040023912 338.759820773 668 250 c 4
 666 5.63636363636 475.922097601 -22.3343001105 320 -30 c 0
 203.854267208 -35.7556462594 99.5783972125 -16.6666666667 23 10 c 1
 33 71 l 1
 104.946428571 68.5757575758 134.56559068 74.6952590498 135 87 c 0
 144 319.165668663 147.93424108 455.271339123 139 628 c 0
 136 686 119 742 27 735 c 1
 17 798 l 1
244 375 m 1
 243 267.063492063 243.354887431 182.916647003 253 103 c 0
 260 45 305.002633798 40.4716292604 358 41 c 0
 471 42.1265822785 546 106.341772152 546 219 c 0
 546 306 475.014454604 383.557803381 370 386 c 0
 327 387 279 382 244 375 c 1
246 450 m 1
 442 426 488.099886095 529.996582847 490 587 c 0
 493 677 433.007206285 745.304191168 355 747 c 0
 309 748 275 739 252 730 c 1
 244 653 247 548 246 450 c 1
EndSplineSet
Layer: 2
SplineSet
17 798 m 1
 205 786 246 803 396 803 c 0
 531 803 612 738 613 618 c 0
 614 524 548 417 441 412 c 1
 473 437 l 1
 613 401 669.073242188 322.999023438 668 220 c 4
 666 28 521 0 320 0 c 1
 252 -1 107 0 33 0 c 1
 23 61 l 1
 102 51 133 77 135 127 c 0
 144 342 147 468 139 628 c 0
 136 686 119 742 27 735 c 1
 17 798 l 1
244 375 m 1
 243 275 243 197 253 123 c 0
 260 65 305 61 358 61 c 0
 471 62 546 119 546 219 c 0
 546 306 475 383 370 386 c 0
 327 387 279 382 244 375 c 1
246 450 m 1
 442 426 488 530 490 587 c 0
 493 677 433 745 355 747 c 0
 309 748 275 739 252 730 c 1
 244 653 247 548 246 450 c 1
EndSplineSet
EndChar

StartChar: W
Encoding: 87 87 20
GlifName: W_
Width: 1231
VWidth: 79
Flags: HMW
LayerCount: 3
Back
SplineSet
-15 800 m 1
 101 796 233 793 321 800 c 1
 331 736 l 1
 260 747 209 735 225 676 c 0
 259 551 333 370 376 225 c 0
 384 192 399 135 407 100 c 1
 467 301 559 592 574 655 c 1
 674 664 l 1
 581 430 512 188 457 8 c 1
 418 2 370 -10 331 -23 c 1
 270 181 201 390 101 650 c 0
 84 696 63 748 -5 736 c 1
 -15 800 l 1
459 800 m 1
 571 800 683 800 795 800 c 1
 805 736 l 1
 734 747 683 735 699 676 c 0
 733 551 799 370 842 225 c 0
 850 192 865 135 873 100 c 1
 933 301 1024 592 1039 655 c 0
 1060 751 985 750 937 749 c 1
 927 800 l 1
 1035 800 1143 800 1251 800 c 1
 1261 739 l 1
 1180 748 1158 714 1139 664 c 0
 1046 430 978 188 923 8 c 1
 884 2 836 -10 797 -23 c 1
 736 181 675 390 575 650 c 0
 558 696 537 757 469 745 c 1
 459 800 l 1
EndSplineSet
Fore
SplineSet
-15 800 m 1
 101 796 233 793 321 800 c 1
 331 736 l 1
 260 747 209 735 225 676 c 0
 259 551 333 370 376 225 c 0
 384 192 399 135 407 100 c 1
 467 301 559 592 574 655 c 1
 674 664 l 1
 581 430 512 188 457 8 c 1
 418 2 370 -10 331 -23 c 1
 270 181 201 390 101 650 c 0
 84 696 63 748 -5 736 c 1
 -15 800 l 1
459 800 m 1
 571 800 683 800 795 800 c 1
 805 736 l 1
 734 747 683 735 699 676 c 0
 733 551 799 370 842 225 c 0
 850 192 865 135 873 100 c 1
 933 301 1024 592 1039 655 c 0
 1060 751 985 750 937 749 c 1
 927 800 l 1
 1035 800 1143 800 1251 800 c 1
 1261 739 l 1
 1180 748 1158 714 1139 664 c 0
 1046 430 978 188 923 8 c 1
 884 2 836 -10 797 -23 c 1
 736 181 675 390 575 650 c 0
 558 696 537 757 469 745 c 1
 459 800 l 1
EndSplineSet
Layer: 2
SplineSet
-15 800 m 1
 101 796 233 793 321 800 c 1
 331 736 l 1
 260 747 209 735 225 676 c 0
 259 551 333 370 376 225 c 0
 384 192 399 135 407 100 c 1
 467 301 559 592 574 655 c 1
 674 664 l 1
 581 430 512 188 457 8 c 1
 418 2 370 -10 331 -23 c 1
 270 181 201 390 101 650 c 0
 84 696 63 748 -5 736 c 1
 -15 800 l 1
459 800 m 1
 571 800 683 800 795 800 c 1
 805 736 l 1
 734 747 683 735 699 676 c 0
 733 551 799 370 842 225 c 0
 850 192 865 135 873 100 c 1
 933 301 1024 592 1039 655 c 0
 1060 751 985 750 937 749 c 1
 927 800 l 1
 1035 800 1143 800 1251 800 c 1
 1261 739 l 1
 1180 748 1158 714 1139 664 c 0
 1046 430 978 188 923 8 c 1
 884 2 836 -10 797 -23 c 1
 736 181 675 390 575 650 c 0
 558 696 537 757 469 745 c 1
 459 800 l 1
EndSplineSet
EndChar

StartChar: c
Encoding: 99 99 21
GlifName: c
Width: 583
VWidth: 153
Flags: HMW
LayerCount: 3
Back
SplineSet
44 230 m 4
 43.796875 469 225.557617188 588.17578125 351.283203125 606 c 4
 450.033203125 620 505.560546875 605.364257812 543.04296875 593 c 5
 546.01953125 540.666992188 531.59375 478.333007812 519.7734375 426 c 5
 471.93359375 498 393.891601562 539.233398438 324.833984375 532 c 4
 251.083007812 524.275390625 175.658203125 448 165.08203125 335 c 4
 155.73046875 235.08203125 196.484375 97 333.146484375 72 c 4
 435.127929688 53 520.541015625 121 522.541015625 121 c 5
 544.720703125 83 l 5
 526.0390625 56 448.465820312 -23.6279296875 321.411132812 -26 c 4
 214.303710938 -28 44.0771484375 26 44 230 c 4
EndSplineSet
Fore
SplineSet
44 230 m 4
 43.796875 469 225.557617188 588.17578125 351.283203125 606 c 4
 450.033203125 620 505.560546875 605.364257812 543.04296875 593 c 5
 546.01953125 540.666992188 531.59375 478.333007812 519.7734375 426 c 5
 471.93359375 498 393.891601562 539.233398438 324.833984375 532 c 4
 251.083007812 524.275390625 175.658203125 448 165.08203125 335 c 4
 155.73046875 235.08203125 196.484375 97 333.146484375 72 c 4
 435.127929688 53 520.541015625 121 522.541015625 121 c 5
 544.720703125 83 l 5
 526.0390625 56 448.465820312 -23.6279296875 321.411132812 -26 c 4
 214.303710938 -28 44.0771484375 26 44 230 c 4
EndSplineSet
Layer: 2
SplineSet
44.921875 230 m 0
 43.921875 404 148.921875 598 391.921875 598 c 0
 489.921875 598 542.921875 569 542.921875 569 c 1
 544.921875 531 544.921875 461 537.921875 416 c 1
 477.921875 412 l 1
 456.921875 455 437.921875 494 388.921875 528 c 1
 469.921875 465 l 1
 447.921875 470 405.921875 524 313.921875 523 c 0
 234.921875 522 160.921875 466 158.921875 315 c 4
 156.921875 192 209.921875 64 343.921875 62 c 0
 408.921875 61 467.921875 86 504.921875 121 c 1
 535.921875 87 l 1
 483.921875 23 409.921875 -15 305.921875 -15 c 0
 156.921875 -15 45.921875 69 44.921875 230 c 0
EndSplineSet
EndChar

StartChar: w
Encoding: 119 119 22
GlifName: w
Width: 1006
VWidth: 79
Flags: HMW
LayerCount: 3
Back
SplineSet
-7 596 m 1
 113 587 189 589 295 596 c 1
 309 542 l 1
 253 546 196 538 220 460 c 1
 248 362 275 292 300 197 c 1
 311 162 325 74 325 74 c 1
 357 146 428 293 492 459 c 1
 573 456 l 1
 504 279 399 71 362 -9 c 9
 258 -26 l 1
 219 86 178 225 98 462 c 1
 79 527 48 533 1 532 c 1
 -7 596 l 1
378 596 m 1
 489 592 566 594 660 596 c 1
 670 542 l 1
 609 546 589 525 604 460 c 1
 632 362 653 292 678 197 c 5
 689 162 702 77 702 77 c 1
 734 149 784 293 838 459 c 1
 861 517 817 536 749 533 c 1
 740 596 l 1
 837 590 906 590 1000 596 c 1
 1011 538 l 1
 951 536 943 508 923 456 c 0
 854 279 783 71 746 -9 c 9
 642 -26 l 1
 608 86 553 245 483 482 c 1
 474 517 443 538 396 532 c 1
 378 596 l 1
EndSplineSet
Fore
SplineSet
-7 596 m 1
 113 587 189 589 295 596 c 1
 309 542 l 1
 253 546 196 538 220 460 c 1
 248 362 275 292 300 197 c 1
 311 162 325 74 325 74 c 1
 357 146 428 293 492 459 c 1
 573 456 l 1
 504 279 399 71 362 -9 c 9
 258 -26 l 1
 219 86 178 225 98 462 c 1
 79 527 48 533 1 532 c 1
 -7 596 l 1
378 596 m 1
 489 592 566 594 660 596 c 1
 670 542 l 1
 609 546 589 525 604 460 c 1
 632 362 653 292 678 197 c 5
 689 162 702 77 702 77 c 1
 734 149 784 293 838 459 c 1
 861 517 817 536 749 533 c 1
 740 596 l 1
 837 590 906 590 1000 596 c 1
 1011 538 l 1
 951 536 943 508 923 456 c 0
 854 279 783 71 746 -9 c 9
 642 -26 l 1
 608 86 553 245 483 482 c 1
 474 517 443 538 396 532 c 1
 378 596 l 1
EndSplineSet
Layer: 2
SplineSet
-7 596 m 1
 113 587 189 589 295 596 c 1
 309 542 l 1
 253 546 196 538 220 460 c 1
 248 362 275 292 300 197 c 1
 311 162 325 74 325 74 c 1
 357 146 428 293 492 459 c 1
 573 456 l 1
 504 279 399 71 362 -9 c 9
 258 -26 l 1
 219 86 178 225 98 462 c 1
 79 527 48 533 1 532 c 1
 -7 596 l 1
378 596 m 1
 489 592 566 594 660 596 c 1
 670 542 l 1
 609 546 589 525 604 460 c 1
 632 362 653 292 678 197 c 5
 689 162 702 77 702 77 c 1
 734 149 784 293 838 459 c 1
 861 517 817 536 749 533 c 1
 740 596 l 1
 837 590 906 590 1000 596 c 1
 1011 538 l 1
 951 536 943 508 923 456 c 0
 854 279 783 71 746 -9 c 9
 642 -26 l 1
 608 86 553 245 483 482 c 1
 474 517 443 538 396 532 c 1
 378 596 l 1
EndSplineSet
EndChar

StartChar: V
Encoding: 86 86 23
GlifName: V_
Width: 826
VWidth: 79
Flags: HMW
LayerCount: 3
Back
SplineSet
-5 799 m 1
 107 794 249 793 331 799 c 1
 341 735 l 1
 270 746 219 734 235 675 c 0
 269 556 340 384 383 245 c 0
 391 206 409 127 417 86 c 5
 487 277 606 591 621 654 c 0
 642 750 560 749 512 748 c 1
 502 799 l 1
 613 795 723 790 826 799 c 1
 836 738 l 1
 755 747 733 713 714 663 c 0
 621 429 529 188 474 8 c 1
 435 2 387 -10 348 -23 c 1
 287 187 211 401 111 669 c 0
 94 705 73 754 5 744 c 1
 -5 799 l 1
EndSplineSet
Fore
SplineSet
-5 799 m 1
 107 794 249 793 331 799 c 1
 341 735 l 1
 270 746 219 734 235 675 c 0
 269 556 340 384 383 245 c 0
 391 206 409 127 417 86 c 5
 487 277 606 591 621 654 c 0
 642 750 560 749 512 748 c 1
 502 799 l 1
 613 795 723 790 826 799 c 1
 836 738 l 1
 755 747 733 713 714 663 c 0
 621 429 529 188 474 8 c 1
 435 2 387 -10 348 -23 c 1
 287 187 211 401 111 669 c 0
 94 705 73 754 5 744 c 1
 -5 799 l 1
EndSplineSet
Layer: 2
SplineSet
-5 799 m 1
 107 794 249 793 331 799 c 1
 341 735 l 1
 270 746 219 734 235 675 c 0
 269 556 340 384 383 245 c 0
 391 206 409 127 417 86 c 5
 487 277 606 591 621 654 c 0
 642 750 560 749 512 748 c 1
 502 799 l 1
 613 795 723 790 826 799 c 1
 836 738 l 1
 755 747 733 713 714 663 c 0
 621 429 529 188 474 8 c 1
 435 2 387 -10 348 -23 c 1
 287 187 211 401 111 669 c 0
 94 705 73 754 5 744 c 1
 -5 799 l 1
EndSplineSet
EndChar

StartChar: C
Encoding: 67 67 24
GlifName: C_
Width: 749
VWidth: 79
Flags: HMW
LayerCount: 3
Back
SplineSet
56.642578125 289 m 4
 44.642578125 527 200.642578125 809 532.642578125 809 c 0
 693.642578125 809 752.642578125 773 752.642578125 773 c 1
 755.642578125 722 751.642578125 592 741.642578125 550 c 1
 682.642578125 553 l 1
 650.642578125 641 567.642578125 755 521.642578125 762 c 1
 535.642578125 783 717.642578125 739 664.642578125 644 c 1
 647.642578125 648 580.642578125 737 457.642578125 737 c 0
 299.642578125 737 192.642578125 589 189.642578125 393 c 0
 186.642578125 226 276.642578125 69 460.642578125 71 c 0
 549.642578125 71.9677734375 631.642578125 118 682.642578125 166 c 1
 722.642578125 123 l 1
 651.642578125 35 540.642578125 -17 398.642578125 -17 c 0
 194.642578125 -17 67.06640625 82.259765625 56.642578125 289 c 4
EndSplineSet
Fore
SplineSet
56.642578125 289 m 4
 44.642578125 527 200.642578125 809 532.642578125 809 c 0
 693.642578125 809 752.642578125 773 752.642578125 773 c 1
 755.642578125 722 751.642578125 592 741.642578125 550 c 1
 682.642578125 553 l 1
 650.642578125 641 567.642578125 755 521.642578125 762 c 1
 535.642578125 783 717.642578125 739 664.642578125 644 c 1
 647.642578125 648 580.642578125 737 457.642578125 737 c 0
 299.642578125 737 192.642578125 589 189.642578125 393 c 0
 186.642578125 226 276.642578125 69 460.642578125 71 c 0
 549.642578125 71.9677734375 631.642578125 118 682.642578125 166 c 1
 722.642578125 123 l 1
 651.642578125 35 540.642578125 -17 398.642578125 -17 c 0
 194.642578125 -17 67.06640625 82.259765625 56.642578125 289 c 4
EndSplineSet
Layer: 2
SplineSet
56.642578125 289 m 4
 44.642578125 527 200.642578125 809 532.642578125 809 c 0
 693.642578125 809 752.642578125 773 752.642578125 773 c 1
 755.642578125 722 751.642578125 592 741.642578125 550 c 1
 682.642578125 553 l 1
 650.642578125 641 567.642578125 755 521.642578125 762 c 1
 535.642578125 783 717.642578125 739 664.642578125 644 c 1
 647.642578125 648 580.642578125 737 457.642578125 737 c 0
 299.642578125 737 192.642578125 589 189.642578125 393 c 0
 186.642578125 226 276.642578125 69 460.642578125 71 c 0
 549.642578125 71.9677734375 631.642578125 118 682.642578125 166 c 1
 722.642578125 123 l 1
 651.642578125 35 540.642578125 -17 398.642578125 -17 c 0
 194.642578125 -17 67.06640625 82.259765625 56.642578125 289 c 4
EndSplineSet
EndChar

StartChar: q
Encoding: 113 113 25
GlifName: q
Width: 688
VWidth: 79
Flags: HMW
LayerCount: 3
Back
SplineSet
580.569335938 581 m 1
 504.569335938 429 l 1
 504.569335938 429 418.743164062 550.004882812 301.569335938 530 c 0
 219.569335938 516 155.5703125 415.293945312 150.569335938 252 c 0
 147.537109375 152.970703125 183.798828125 77.55078125 258.569335938 72.8623046875 c 0
 349.321289062 67.171875 461.552734375 187.961914062 473.569335938 346 c 5
 504.569335938 301 l 5
 472.569335938 58 317.569335938 -19 232.569335938 -22 c 0
 87.66015625 -27.1142578125 30.720703125 76.6298828125 46.5693359375 247 c 0
 62.5693359375 419 175.569335938 601 405.569335938 603 c 0
 503.569335938 604 537.569335938 592 580.569335938 581 c 1
399.569335938 598 m 1
 580.569335938 581 l 1
 558.59765625 247.755859375 568.249023438 186.048828125 577.569335938 -69 c 0
 580.372070312 -145.729492188 607.62109375 -170 664.569335938 -170 c 2
 672.569335938 -170 l 1
 682.569335938 -218 l 1
 346.569335938 -218 l 1
 338.569335938 -156 l 1
 350.569335938 -157 361.569335938 -158 371.569335938 -158 c 0
 426.569335938 -158 455.569335938 -137 458.569335938 -88 c 1
 460.068359375 -87.7607421875 l 1
 483.748046875 157.041992188 473.15234375 488.059570312 462.569335938 554 c 1
 399.569335938 598 l 1
EndSplineSet
Fore
SplineSet
580.569335938 581 m 1
 504.569335938 429 l 1
 504.569335938 429 418.743164062 550.004882812 301.569335938 530 c 0
 219.569335938 516 155.5703125 415.293945312 150.569335938 252 c 0
 147.537109375 152.970703125 183.798828125 77.55078125 258.569335938 72.8623046875 c 0
 349.321289062 67.171875 461.552734375 187.961914062 473.569335938 346 c 5
 504.569335938 301 l 5
 472.569335938 58 317.569335938 -19 232.569335938 -22 c 0
 87.66015625 -27.1142578125 30.720703125 76.6298828125 46.5693359375 247 c 0
 62.5693359375 419 175.569335938 601 405.569335938 603 c 0
 503.569335938 604 537.569335938 592 580.569335938 581 c 1
399.569335938 598 m 1
 580.569335938 581 l 1
 558.59765625 247.755859375 568.249023438 186.048828125 577.569335938 -69 c 0
 580.372070312 -145.729492188 607.62109375 -170 664.569335938 -170 c 2
 672.569335938 -170 l 1
 682.569335938 -218 l 1
 346.569335938 -218 l 1
 338.569335938 -156 l 1
 350.569335938 -157 361.569335938 -158 371.569335938 -158 c 0
 426.569335938 -158 455.569335938 -137 458.569335938 -88 c 1
 460.068359375 -87.7607421875 l 1
 483.748046875 157.041992188 473.15234375 488.059570312 462.569335938 554 c 1
 399.569335938 598 l 1
EndSplineSet
Layer: 2
SplineSet
61.5693359375 225 m 0
 60.5693359375 367 140.849609375 551.5703125 339.569335938 602 c 0
 415.500976562 621.26953125 539.569335938 604 579.569335938 589 c 1
 499.569335938 497 l 1
 499.569335938 497 431.1328125 560.984375 337.569335938 550 c 0
 253.970703125 540.185546875 186.569335938 434 184.569335938 284 c 0
 183.569335938 181 217.76953125 73.482421875 307.569335938 73 c 0
 418.080078125 72.40625 464.569335938 187 485.569335938 241 c 1
 516.569335938 200 l 1
 484.569335938 126 438.569335938 -3 285.569335938 -13 c 0
 140.877929688 -22.45703125 62.5693359375 64 61.5693359375 225 c 0
399.569335938 598 m 1
 580.569335938 589 l 1
 558.596679688 255.755859375 568.249023438 186.048828125 577.569335938 -69 c 0
 580.372070312 -145.729492188 607.62109375 -170 664.569335938 -170 c 2
 672.569335938 -170 l 1
 682.569335938 -218 l 1
 346.569335938 -218 l 1
 338.569335938 -156 l 1
 350.569335938 -157 361.569335938 -158 371.569335938 -158 c 0
 426.569335938 -158 455.569335938 -137 458.569335938 -88 c 1
 460.068359375 -87.7607421875 l 1
 483.748046875 157.041992188 473.15234375 488.059570312 462.569335938 554 c 1
 399.569335938 598 l 1
EndSplineSet
EndChar

StartChar: f
Encoding: 102 102 26
GlifName: f
Width: 484
VWidth: 79
Flags: HMW
LayerCount: 3
Back
SplineSet
121 573 m 1
 109.348632812 890.875976562 285.700195312 908.90234375 404 908 c 0
 469.017578125 907.50390625 532 886 532 886 c 1
 532.15234375 830.548828125 510.223632812 758.377929688 489 718 c 1
 448.314453125 780.97265625 387.509765625 857.119140625 314 849 c 0
 250.068359375 841.939453125 237.26171875 726.715820312 235.463867188 561 c 1
 121 573 l 1
45 520 m 1
 35 588 l 1
 176.5078125 583.043945312 258.553710938 582.5 390 588 c 1
 403 522 l 1
 211 503.526367188 l 1
 132 439.640625 l 1
 132.805664062 506.45703125 123.041015625 529.84765625 45 520 c 1
11 61 m 1
 87 57 119 78 123 136 c 1
 123.247070312 136.033203125 l 1
 125.762695312 193.512695312 135.75 335.641601562 129 488 c 1
 132 574 l 1
 236.353515625 559 l 1
 227.447265625 418.577148438 224.17578125 309.595703125 240.0625 151.873046875 c 4
 247 83 267.166015625 52.86328125 349 54 c 5
 359 0 l 5
 18 0 l 1
 11 61 l 1
EndSplineSet
Fore
SplineSet
121 573 m 1
 109.348632812 890.875976562 285.700195312 908.90234375 404 908 c 0
 469.017578125 907.50390625 532 886 532 886 c 1
 532.15234375 830.548828125 510.223632812 758.377929688 489 718 c 1
 448.314453125 780.97265625 387.509765625 858.119140625 314 850 c 4
 250.068359375 842.939453125 227.26171875 706.715820312 225.463867188 541 c 1
 121 573 l 1
45 520 m 1
 35 588 l 1
 176.5078125 583.043945312 258.553710938 582.5 390 588 c 1
 403 522 l 1
 201 483.526367188 l 1
 132 439.640625 l 1
 132.805664062 506.45703125 123.041015625 529.84765625 45 520 c 1
11 61 m 1
 87 57 119 88 123 146 c 1
 123.247070312 146.033203125 l 1
 125.762695312 203.512695312 135.75 335.641601562 129 488 c 1
 132 574 l 1
 226.353515625 539 l 1
 217.447265625 398.577148438 224.17578125 319.595703125 240.0625 161.873046875 c 0
 247 93 267.166015625 52.86328125 349 54 c 1
 359 0 l 1
 18 0 l 1
 11 61 l 1
EndSplineSet
Layer: 2
SplineSet
121 573 m 1
 109.348632812 890.875976562 285.700195312 908.90234375 404 908 c 0
 469.017578125 907.50390625 532 886 532 886 c 1
 532.15234375 830.548828125 510.223632812 758.377929688 489 718 c 1
 448.314453125 780.97265625 387.509765625 857.119140625 314 849 c 0
 250.068359375 841.939453125 237.26171875 726.715820312 235.463867188 561 c 1
 121 573 l 1
45 520 m 1
 35 588 l 1
 176.5078125 583.043945312 258.553710938 582.5 390 588 c 1
 403 522 l 1
 211 503.526367188 l 1
 132 439.640625 l 1
 132.805664062 506.45703125 123.041015625 529.84765625 45 520 c 1
11 61 m 1
 87 57 119 78 123 136 c 1
 123.247070312 136.033203125 l 1
 125.762695312 193.512695312 135.75 335.641601562 129 488 c 1
 132 574 l 1
 236.353515625 559 l 1
 227.447265625 418.577148438 224.17578125 309.595703125 240.0625 151.873046875 c 4
 247 83 267.166015625 52.86328125 349 54 c 5
 359 0 l 5
 18 0 l 1
 11 61 l 1
EndSplineSet
Colour: ff0000
EndChar

StartChar: y
Encoding: 121 121 30
GlifName: y
Width: 665
VWidth: 79
Flags: HMW
LayerCount: 3
Back
SplineSet
-2 596 m 1
 112 591 206 593 320 596 c 1
 334 542 l 1
 258 536 210 525 225 460 c 1
 253 362 272 299 303 204 c 4
 314 169 338 68 338 68 c 1
 375 140 458 353 492 459 c 0
 510 518 472 536 404 533 c 1
 395 596 l 1
 492 590 568 592 665 596 c 1
 676 538 l 1
 606 536 600 507 578 456 c 0
 502 279 427 96 390 16 c 1
 361 13 307 -4 273 -8 c 1
 234 104 183 225 103 462 c 1
 84 527 53 539 6 538 c 1
 -2 596 l 1
53 -143 m 1
 246 -167 290 -43 334 52 c 9
 405 50 l 17
 379 -9 343 -106 309 -158 c 0
 256 -240 158 -267 73 -263 c 1
 35 -231 42 -163 53 -143 c 1
EndSplineSet
Fore
SplineSet
-2 596 m 1
 112 591 206 593 320 596 c 1
 334 542 l 1
 258 536 210 525 225 460 c 1
 253 362 272 299 303 204 c 4
 314 169 338 68 338 68 c 1
 375 140 458 353 492 459 c 0
 510 518 472 536 404 533 c 1
 395 596 l 1
 492 590 568 592 665 596 c 1
 676 538 l 1
 606 536 600 507 578 456 c 0
 502 279 427 96 390 16 c 1
 361 13 307 -4 273 -8 c 1
 234 104 183 225 103 462 c 1
 84 527 53 539 6 538 c 1
 -2 596 l 1
53 -143 m 1
 246 -167 290 -43 334 52 c 9
 405 50 l 17
 379 -9 343 -106 309 -158 c 0
 256 -240 158 -267 73 -263 c 1
 35 -231 42 -163 53 -143 c 1
EndSplineSet
Layer: 2
SplineSet
-2 596 m 1
 112 591 206 593 320 596 c 1
 334 542 l 1
 258 536 210 525 225 460 c 1
 253 362 272 299 303 204 c 4
 314 169 338 68 338 68 c 1
 375 140 458 353 492 459 c 0
 510 518 472 536 404 533 c 1
 395 596 l 1
 492 590 568 592 665 596 c 1
 676 538 l 1
 606 536 600 507 578 456 c 0
 502 279 427 96 390 16 c 1
 361 13 307 -4 273 -8 c 1
 234 104 183 225 103 462 c 1
 84 527 53 539 6 538 c 1
 -2 596 l 1
53 -143 m 1
 246 -167 290 -43 334 52 c 9
 405 50 l 17
 379 -9 343 -106 309 -158 c 0
 256 -240 158 -267 73 -263 c 1
 35 -231 42 -163 53 -143 c 1
EndSplineSet
EndChar

StartChar: l
Encoding: 108 108 31
GlifName: l
Width: 445
VWidth: 79
Flags: HMW
LayerCount: 3
Back
SplineSet
61 61 m 5
 139.303710938 56.87890625 171.954101562 90.62109375 178 142 c 4
 202 346 194.548828125 472.846679688 183 677 c 4
 179.779296875 733.931640625 115 767 43 766 c 5
 38 830 l 5
 121 828 322 850 322 850 c 5
 280 672 293.985351562 230.2734375 301 172 c 4
 311.4140625 85.484375 348.295898438 48.2939453125 397 51 c 5
 407 0 l 5
 71 0 l 5
 61 61 l 5
EndSplineSet
Fore
SplineSet
61 52 m 1
 139.303710938 47.87890625 169.954101562 73.62109375 178 143 c 0
 201.662529935 347.03941942 194.548828125 482.846679688 183 687 c 0
 179.779296875 743.931640625 115 777 43 776 c 1
 38 830 l 1
 121 828 322 850 322 850 c 1
 280 672 293.985351562 230.2734375 301 172 c 0
 311.4140625 85.484375 348.295898438 48.2939453125 397 51 c 1
 407 0 l 1
 71 0 l 1
 61 52 l 1
EndSplineSet
Layer: 2
SplineSet
61 61 m 5
 139.303710938 56.87890625 171.954101562 90.62109375 178 142 c 4
 202 346 197 483 183 687 c 4
 179.779296875 733.931640625 135 767 63 766 c 5
 58 830 l 5
 141 828 322 850 322 850 c 1
 280 672 293.985351562 230.2734375 301 172 c 0
 311.4140625 85.484375 348.295898438 48.2939453125 397 51 c 1
 407 0 l 1
 71 0 l 5
 61 61 l 5
EndSplineSet
EndChar

StartChar: u
Encoding: 117 117 34
GlifName: u
Width: 728
VWidth: 79
Flags: HMW
LayerCount: 3
Back
SplineSet
-4 596 m 1
 88 591 169 599 239 608 c 1
 222 521 209 391 209 285 c 0
 209 177.4765625 243.43359375 85 334 85 c 0
 435 85 503 181 503 181 c 1
 528 144 l 1
 479 76 369 -14 262 -14 c 0
 186 -14 128 23 114 117 c 0
 111 139 109 180 109 225 c 0
 109 296 123 333 116 459 c 0
 112.05859375 529.954101562 32 534 2 532 c 1
 -4 596 l 1
376 598 m 1
 449 593 568 600 625 610 c 1
 605 468 l 1
 504 455 l 5
 509 542 422 540 384 538 c 1
 376 598 l 1
496 120 m 1
 498 161 508 203 508 247 c 0
 508 271 508 294 508 319 c 0
 508 405 499 488 509 588 c 1
 624 600 l 5
 603 456 597 352 597 260 c 0
 597 155 599 59 711 56 c 1
 720 0 l 1
 502 0 l 1
 502 0 509 102 515 128 c 1
 515 137 517 141 514 141 c 0
 507 141 496 120 496 120 c 1
EndSplineSet
Fore
SplineSet
-4 596 m 1
 88 591 169 599 239 608 c 1
 222 521 209 391 209 285 c 0
 209 177.4765625 243.43359375 85 334 85 c 0
 435 85 503 181 503 181 c 1
 528 144 l 1
 479 76 369 -14 262 -14 c 0
 186 -14 128 23 114 117 c 0
 111 139 109 180 109 225 c 0
 109 296 123 333 116 459 c 0
 112.05859375 529.954101562 32 534 2 532 c 1
 -4 596 l 1
376 598 m 1
 449 593 568 600 625 610 c 1
 605 468 l 1
 504 455 l 5
 509 542 422 540 384 538 c 1
 376 598 l 1
496 120 m 1
 498 161 508 203 508 247 c 0
 508 271 508 294 508 319 c 0
 508 405 499 488 509 588 c 1
 624 600 l 5
 603 456 597 352 597 260 c 0
 597 155 599 59 711 56 c 1
 720 0 l 1
 502 0 l 1
 502 0 509 102 515 128 c 1
 515 137 517 141 514 141 c 0
 507 141 496 120 496 120 c 1
EndSplineSet
Layer: 2
SplineSet
-4 596 m 1
 88 591 169 599 239 608 c 1
 222 521 215 401 215 295 c 0
 215 251 217 211 221 181 c 0
 230 118 275 85 334 85 c 0
 435 85 503 181 503 181 c 1
 528 144 l 1
 479 76 369 -14 262 -14 c 0
 186 -14 128 23 114 117 c 0
 111 139 109 180 109 225 c 0
 109 296 113 383 116 459 c 0
 119 530 32 534 2 532 c 1
 -4 596 l 1
376 598 m 1
 449 593 568 600 625 610 c 1
 615 468 l 1
 500 455 l 1
 505 542 422 540 384 538 c 1
 376 598 l 1
496 120 m 1
 498 161 498 203 498 247 c 0
 498 271 498 294 498 319 c 0
 498 405 499 488 509 588 c 1
 624 600 l 1
 613 456 607 312 607 220 c 0
 607 115 599 59 711 56 c 1
 720 0 l 1
 502 0 l 1
 502 0 509 102 515 128 c 1
 515 137 517 141 514 141 c 0
 507 141 496 120 496 120 c 1
EndSplineSet
EndChar

StartChar: k
Encoding: 107 107 35
GlifName: k
Width: 762
VWidth: 79
Flags: HMW
LayerCount: 3
Back
SplineSet
313 341 m 1
 342 334 359 347 393 357 c 1
 393 357 536 50 696 61 c 1
 708 10 l 1
 644 -11 606 -13 552 -10 c 1
 460.83984375 -3.140625 349.147460938 266.52734375 313 341 c 1
42 61 m 1
 118 57 153 89 160 137 c 1
 268 146 l 1
 266 51 330 50 348 51 c 1
 358 0 l 1
 52 0 l 1
 42 61 l 1
43 829 m 1
 126 827 292 850 292 850 c 1
 267 637 264 208 268 145 c 0
 271 101 238 49 320 49 c 1
 304 1 l 1
 129 0 l 1
 129 0 151 72 159 136 c 0
 169 271 168 529 163 719 c 0
 158 763 128 766 50 766 c 1
 43 829 l 1
249 307 m 5
 264 369 l 5
 295 367 311 359 338 359 c 5
 358 369 421 434 464 497 c 4
 478 518 484 544 406 541 c 5
 387 594 l 5
 464 588 538 590 635 594 c 5
 648 546 l 5
 618 544 589 520 558 490 c 4
 487 421 420 333 389 306 c 5
 358 299 301 307 249 307 c 5
EndSplineSet
Fore
SplineSet
333 333 m 1
 366.626367012 360.017168804 401.554172456 395.58521666 484 487 c 0
 500.890566936 505.753899556 504 534 426 531 c 1
 412 594 l 1
 493.657258065 588 572.133064516 590 675 594 c 1
 692 531 l 1
 662 529.714285714 630.857358203 525.96029531 602 495 c 0
 536.066844552 424.262063803 455.105527638 337.017241379 428 308 c 1
 381.984375 302.35483871 351.725961538 325.857142857 333 333 c 1
61 51 m 1
 139.303710938 46.87890625 171.955404755 80.6209404164 178 132 c 0
 202 336 194.549239658 482.846702969 183 687 c 0
 179.779296875 743.931640625 115 777 43 776 c 1
 38 830 l 1
 121 835 322 850 322 850 c 1
 280 672 293.985505073 230.273455979 301 172 c 0
 310.329264323 85.484375 343.369242351 48.2939453125 387 51 c 5
 397 0 l 5
 71 0 l 1
 61 51 l 1
333 332 m 1
 374.428571429 320.625 384.428571429 341.75 433 358 c 1
 437.621090902 303.794744318 605.109656865 69.3772727273 756 78 c 1
 768 27 l 1
 744 6 686 -27 612 -14 c 1
 496.707495934 2.61921296296 370.49123272 258.588207799 333 332 c 1
EndSplineSet
Layer: 2
SplineSet
313 341 m 1
 342 334 359 347 393 357 c 1
 393 357 536 50 696 61 c 5
 708 10 l 1
 644 -11 606 -13 552 -10 c 1
 460.83984375 -3.140625 349.147460938 266.52734375 313 341 c 1
42 61 m 1
 118 57 153 89 160 137 c 1
 268 146 l 1
 266 51 330 50 348 51 c 1
 358 0 l 1
 52 0 l 1
 42 61 l 1
43 829 m 1
 126 827 292 850 292 850 c 1
 267 637 264 208 268 145 c 0
 271 101 238 49 320 49 c 1
 304 1 l 1
 129 0 l 1
 129 0 151 72 159 136 c 0
 169 271 168 529 163 719 c 0
 158 763 128 766 50 766 c 1
 43 829 l 1
249 307 m 1
 264 369 l 1
 295 367 311 359 338 359 c 1
 358 369 421 434 464 497 c 0
 478 518 484 544 406 541 c 1
 387 594 l 1
 464 588 538 590 635 594 c 1
 648 546 l 1
 618 544 589 520 558 490 c 0
 487 421 420 333 389 306 c 1
 358 299 301 307 249 307 c 1
EndSplineSet
EndChar

StartChar: j
Encoding: 106 106 36
GlifName: j
Width: 366
VWidth: 79
Flags: HMW
LayerCount: 3
Back
SplineSet
-51 -240 m 1
 -28 -189 l 5
 118 -213 150 -81 164 67 c 5
 261 -8 l 1
 263 -184 196 -263 69 -264 c 0
 14 -265 -37 -248 -51 -240 c 1
31 584 m 1
 114 582 271 595 271 595 c 1
 261 540 260 67 261 -20 c 1
 164 60 l 5
 179 260 157 386 150 448 c 0
 145 493 109 523 37 523 c 1
 31 584 l 1
100 782 m 0
 100 824 134 852 175 852 c 0
 225 852 250 813 250 771 c 0
 250 729 216 701 175 701 c 0
 134 701 100 740 100 782 c 0
100 782 m 0
 100 824 134 852 175 852 c 0
 225 852 250 813 250 771 c 0
 250 729 216 701 175 701 c 0
 134 701 100 740 100 782 c 0
EndSplineSet
Fore
SplineSet
-51 -240 m 1
 -28 -189 l 5
 118 -213 150 -81 164 67 c 5
 261 -8 l 1
 263 -184 196 -263 69 -264 c 0
 14 -265 -37 -248 -51 -240 c 1
31 584 m 1
 114 582 271 595 271 595 c 1
 261 540 260 67 261 -20 c 1
 164 60 l 5
 179 260 157 386 150 448 c 0
 145 493 109 523 37 523 c 1
 31 584 l 1
100 782 m 0
 100 824 134 852 175 852 c 0
 225 852 250 813 250 771 c 0
 250 729 216 701 175 701 c 0
 134 701 100 740 100 782 c 0
100 782 m 0
 100 824 134 852 175 852 c 0
 225 852 250 813 250 771 c 0
 250 729 216 701 175 701 c 0
 134 701 100 740 100 782 c 0
EndSplineSet
Layer: 2
SplineSet
-51 -240 m 1
 -28 -189 l 5
 118 -213 150 -81 164 67 c 5
 261 -8 l 1
 263 -184 196 -263 69 -264 c 0
 14 -265 -37 -248 -51 -240 c 1
31 584 m 1
 114 582 271 595 271 595 c 1
 261 540 260 67 261 -20 c 1
 164 60 l 5
 179 260 157 386 150 448 c 0
 145 493 109 523 37 523 c 1
 31 584 l 1
100 782 m 0
 100 824 134 852 175 852 c 0
 225 852 250 813 250 771 c 0
 250 729 216 701 175 701 c 0
 134 701 100 740 100 782 c 0
100 782 m 0
 100 824 134 852 175 852 c 0
 225 852 250 813 250 771 c 0
 250 729 216 701 175 701 c 0
 134 701 100 740 100 782 c 0
EndSplineSet
EndChar

StartChar: comma
Encoding: 44 44 37
GlifName: comma
Width: 207
VWidth: 79
Flags: HMW
LayerCount: 3
Back
SplineSet
27.205078125 44.1494140625 m 0
 32.853515625 99.388671875 87.6630859375 129.25 133.006835938 122.614257812 c 4
 187.899414062 114.58203125 202.997070312 79.365234375 196.186523438 32.826171875 c 0
 189.375976562 -13.7099609375 156.866210938 -44.2998046875 111.142578125 -48.578125 c 1
 90.04296875 -34.5205078125 21.2109375 -13.4775390625 27.205078125 44.1494140625 c 0
11 -145.053710938 m 1
 20.0791015625 -132.9765625 86.654296875 -78.91796875 61.3212890625 14.1474609375 c 9
 139.083007812 42.4033203125 l 25
 145.427734375 2.4716796875 202.793945312 69.6455078125 196.186523438 32.826171875 c 0
 184.544921875 -30.0673828125 86.75390625 -148.610351562 53.4296875 -168.109375 c 1
 11 -145.053710938 l 1
EndSplineSet
Fore
SplineSet
27.205078125 44.1494140625 m 0
 32.853515625 99.388671875 87.6630859375 129.25 133.006835938 122.614257812 c 4
 187.899414062 114.58203125 202.997070312 79.365234375 196.186523438 32.826171875 c 0
 189.375976562 -13.7099609375 156.866210938 -44.2998046875 111.142578125 -48.578125 c 1
 90.04296875 -34.5205078125 21.2109375 -13.4775390625 27.205078125 44.1494140625 c 0
11 -145.053710938 m 1
 20.0791015625 -132.9765625 86.654296875 -78.91796875 61.3212890625 14.1474609375 c 9
 139.083007812 42.4033203125 l 25
 145.427734375 2.4716796875 202.793945312 69.6455078125 196.186523438 32.826171875 c 0
 184.544921875 -30.0673828125 86.75390625 -148.610351562 53.4296875 -168.109375 c 1
 11 -145.053710938 l 1
EndSplineSet
Layer: 2
SplineSet
27.205078125 44.1494140625 m 0
 32.853515625 99.388671875 87.6630859375 129.25 133.006835938 122.614257812 c 4
 187.899414062 114.58203125 202.997070312 79.365234375 196.186523438 32.826171875 c 0
 189.375976562 -13.7099609375 156.866210938 -44.2998046875 111.142578125 -48.578125 c 1
 90.04296875 -34.5205078125 21.2109375 -13.4775390625 27.205078125 44.1494140625 c 0
11 -145.053710938 m 1
 20.0791015625 -132.9765625 86.654296875 -78.91796875 61.3212890625 14.1474609375 c 9
 139.083007812 42.4033203125 l 25
 145.427734375 2.4716796875 202.793945312 69.6455078125 196.186523438 32.826171875 c 0
 184.544921875 -30.0673828125 86.75390625 -148.610351562 53.4296875 -168.109375 c 1
 11 -145.053710938 l 1
EndSplineSet
EndChar

StartChar: acute
Encoding: 180 180 43
GlifName: acute
Width: 496
VWidth: 0
Flags: HMW
LayerCount: 3
Back
SplineSet
73 1120 m 9
 83 1066 l 17
 191 1081 368 1158 431 1204 c 9
 371 1298 l 21
 308 1232 165 1142 73 1120 c 9
EndSplineSet
Fore
SplineSet
73 1120 m 9
 83 1066 l 17
 191 1081 368 1158 431 1204 c 9
 371 1298 l 21
 308 1232 165 1142 73 1120 c 9
EndSplineSet
Layer: 2
SplineSet
73 1120 m 9
 83 1066 l 17
 191 1081 368 1158 431 1204 c 9
 371 1298 l 21
 308 1232 165 1142 73 1120 c 9
EndSplineSet
EndChar

StartChar: x
Encoding: 120 120 50
GlifName: x
Width: 643
VWidth: 79
Flags: HMW
LayerCount: 3
Back
SplineSet
14 598 m 1
 108 590 212 591 286 597 c 1
 300 542 l 1
 224 541 208 529 233 484 c 1
 255 449 306 381 340 336 c 1
 379 318 l 1
 430 248 544 61 624 58 c 1
 636 -2 l 1
 346 -2 l 1
 337 53 l 1
 373 49 426 69 385 136 c 0
 358 179 311 243 278 286 c 1
 244 286 l 1
 207 337 154 411 118 472 c 1
 87 527 69 541 22 540 c 1
 14 598 l 1
9 54 m 1
 66 53 92 78 115 110 c 0
 145 152 232 263 269 326 c 1
 328 326 l 1
 364 376 425 437 449 476 c 0
 477 523 454 537 400 538 c 1
 389 598 l 1
 462 592 557 592 622 598 c 1
 630 544 l 1
 556 544 558 520 520 465 c 0
 481 408 415 333 385 294 c 1
 332 284 l 1
 292 240 241 175 209 122 c 1
 190 87 182 47 248 50 c 1
 260 -2 l 1
 21 -2 l 1
 9 54 l 1
EndSplineSet
Fore
SplineSet
14 598 m 1
 108 590 212 591 286 597 c 1
 300 542 l 1
 224 541 208 529 233 484 c 1
 255 449 306 381 340 336 c 1
 379 318 l 1
 430 248 544 61 624 58 c 1
 636 -2 l 1
 346 -2 l 1
 337 53 l 1
 373 49 426 69 385 136 c 0
 358 179 311 243 278 286 c 1
 244 286 l 1
 207 337 154 411 118 472 c 1
 87 527 69 541 22 540 c 1
 14 598 l 1
9 54 m 1
 66 53 92 78 115 110 c 0
 145 152 232 263 269 326 c 1
 328 326 l 1
 364 376 425 437 449 476 c 0
 477 523 454 537 400 538 c 1
 389 598 l 1
 462 592 557 592 622 598 c 1
 630 544 l 1
 556 544 558 520 520 465 c 0
 481 408 415 333 385 294 c 1
 332 284 l 1
 292 240 241 175 209 122 c 1
 190 87 182 47 248 50 c 1
 260 -2 l 1
 21 -2 l 1
 9 54 l 1
EndSplineSet
Layer: 2
SplineSet
14 598 m 1
 108 590 212 591 286 597 c 1
 300 542 l 1
 224 541 208 529 233 484 c 1
 255 449 306 381 340 336 c 1
 379 318 l 1
 430 248 544 61 624 58 c 1
 636 -2 l 1
 346 -2 l 1
 337 53 l 1
 373 49 426 69 385 136 c 0
 358 179 311 243 278 286 c 1
 244 286 l 1
 207 337 154 411 118 472 c 1
 87 527 69 541 22 540 c 1
 14 598 l 1
9 54 m 1
 66 53 92 78 115 110 c 0
 145 152 232 263 269 326 c 1
 328 326 l 1
 364 376 425 437 449 476 c 0
 477 523 454 537 400 538 c 1
 389 598 l 1
 462 592 557 592 622 598 c 1
 630 544 l 1
 556 544 558 520 520 465 c 0
 481 408 415 333 385 294 c 1
 332 284 l 1
 292 240 241 175 209 122 c 1
 190 87 182 47 248 50 c 1
 260 -2 l 1
 21 -2 l 1
 9 54 l 1
EndSplineSet
Colour: ff0000
EndChar

StartChar: dieresis
Encoding: 168 168 51
GlifName: dieresis
Width: 496
VWidth: 0
Flags: HMW
LayerCount: 3
Back
SplineSet
73 1140 m 13
 83 1066 l 21
 191 1081 368 1158 431 1204 c 13
 371 1298 l 21
 328 1242 165 1162 73 1140 c 13
EndSplineSet
Fore
SplineSet
73 1140 m 13
 83 1066 l 21
 191 1081 368 1158 431 1204 c 13
 371 1298 l 21
 328 1242 165 1162 73 1140 c 13
EndSplineSet
Layer: 2
SplineSet
73 1140 m 13
 83 1066 l 21
 191 1081 368 1158 431 1204 c 13
 371 1298 l 21
 328 1242 165 1162 73 1140 c 13
EndSplineSet
EndChar

StartChar: z
Encoding: 122 122 52
GlifName: z
Width: 560
VWidth: 79
Flags: HMW
LayerCount: 3
Back
SplineSet
22 0 m 5
 186 0 251 0 506 0 c 1
 519 55 520 118 518 181 c 1
 516 181 469 175 459 175 c 1
 459 125 451 78 436 78 c 1
 367 68 299 67 291 67 c 0
 181 68 193 89 233 150 c 1
 252 182 483 491 528 546 c 5
 532 598 l 5
 458 593 217 588 62 598 c 1
 57 542 55 471 60 418 c 1
 121 424 l 1
 119 444 129 503 140 521 c 1
 188 529 319 534 375 525 c 1
 334 454 134 170 28 62 c 1
 22 0 l 5
EndSplineSet
Fore
SplineSet
22 0 m 5
 186 0 251 0 506 0 c 1
 519 55 520 118 518 181 c 1
 516 181 469 175 459 175 c 1
 459 125 451 78 436 78 c 1
 367 68 299 67 291 67 c 0
 181 68 193 89 233 150 c 1
 252 182 483 491 528 546 c 5
 532 598 l 5
 458 593 217 588 62 598 c 1
 57 542 55 471 60 418 c 1
 121 424 l 1
 119 444 129 503 140 521 c 1
 188 529 319 534 375 525 c 1
 334 454 134 170 28 62 c 1
 22 0 l 5
EndSplineSet
Layer: 2
SplineSet
22 0 m 5
 186 0 251 0 506 0 c 1
 519 55 520 118 518 181 c 1
 516 181 469 175 459 175 c 1
 459 125 451 78 436 78 c 1
 367 68 299 67 291 67 c 0
 181 68 193 89 233 150 c 1
 252 182 483 491 528 546 c 5
 532 598 l 5
 458 593 217 588 62 598 c 1
 57 542 55 471 60 418 c 1
 121 424 l 1
 119 444 129 503 140 521 c 1
 188 529 319 534 375 525 c 1
 334 454 134 170 28 62 c 1
 22 0 l 5
EndSplineSet
Colour: ff0000
EndChar

StartChar: E
Encoding: 69 69 54
GlifName: E_
Width: 679
VWidth: 79
Flags: HMW
LayerCount: 3
Back
SplineSet
40 61 m 5
 111 49 133 89 140 137 c 5
 264 135 l 1
 265 117 270 77 306 73 c 0
 396 64 500 79 537 86 c 1
 482 29 l 1
 515 68 550 145 557 204 c 1
 629 212 l 1
 629 212 638 139 638 80 c 24
 638 56 631 0 631 0 c 1
 440 0 239 0 48 0 c 5
 40 61 l 5
51 800 m 5
 127 794 273 795 356 795 c 0
 442 795 551 796 648 801 c 1
 648 801 651 744 651 720 c 24
 651 661 642 588 642 588 c 1
 570 596 l 1
 563 655 538 732 495 771 c 1
 590 722 l 1
 509 730 438 733 339 733 c 0
 289 733 277 703 274 673 c 0
 255 471 262 198 264 145 c 0
 266 99 274 44 333 44 c 1
 317 26 l 1
 112 30 l 5
 112 30 132 72 140 136 c 4
 150 265 155 489 150 663 c 5
 143 711 133 743 57 739 c 5
 51 800 l 5
194 367 m 1
 194 443 l 1
 394 444 l 1
 538 461 l 1
 538 370 l 1
 413 377 319 369 194 367 c 1
EndSplineSet
Fore
SplineSet
40 61 m 5
 111 49 133 89 140 137 c 5
 264 135 l 1
 265 117 270 77 306 73 c 0
 396 64 500 79 537 86 c 1
 482 29 l 1
 515 68 550 145 557 204 c 1
 629 212 l 1
 629 212 638 139 638 80 c 24
 638 56 631 0 631 0 c 1
 440 0 239 0 48 0 c 5
 40 61 l 5
51 800 m 5
 127 794 273 795 356 795 c 0
 442 795 551 796 648 801 c 1
 648 801 651 744 651 720 c 24
 651 661 642 588 642 588 c 1
 570 596 l 1
 563 655 538 732 495 771 c 1
 590 722 l 1
 509 730 438 733 339 733 c 0
 289 733 277 703 274 673 c 0
 255 471 262 198 264 145 c 0
 266 99 274 44 333 44 c 1
 317 26 l 1
 112 30 l 5
 112 30 132 72 140 136 c 4
 150 265 155 489 150 663 c 5
 143 711 133 743 57 739 c 5
 51 800 l 5
194 367 m 1
 194 443 l 1
 394 444 l 1
 538 461 l 1
 538 370 l 1
 413 377 319 369 194 367 c 1
EndSplineSet
Layer: 2
SplineSet
40 61 m 5
 111 49 133 89 140 137 c 5
 264 135 l 1
 265 117 270 77 306 73 c 0
 396 64 500 79 537 86 c 1
 482 29 l 1
 515 68 550 145 557 204 c 1
 629 212 l 1
 629 212 638 139 638 80 c 24
 638 56 631 0 631 0 c 1
 440 0 239 0 48 0 c 5
 40 61 l 5
51 800 m 5
 127 794 273 795 356 795 c 0
 442 795 551 796 648 801 c 1
 648 801 651 744 651 720 c 24
 651 661 642 588 642 588 c 1
 570 596 l 1
 563 655 538 732 495 771 c 1
 590 722 l 1
 509 730 438 733 339 733 c 0
 289 733 277 703 274 673 c 0
 255 471 262 198 264 145 c 0
 266 99 274 44 333 44 c 1
 317 26 l 1
 112 30 l 5
 112 30 132 72 140 136 c 4
 150 265 155 489 150 663 c 5
 143 711 133 743 57 739 c 5
 51 800 l 5
194 367 m 1
 194 443 l 1
 394 444 l 1
 538 461 l 1
 538 370 l 1
 413 377 319 369 194 367 c 1
EndSplineSet
Colour: ff0000
EndChar

StartChar: F
Encoding: 70 70 55
GlifName: F_
Width: 691
VWidth: 79
Flags: HMW
LayerCount: 3
Back
SplineSet
32 61 m 5
 115 57 137 89 145 137 c 5
 267 146 l 1
 265 51 377 50 394 51 c 1
 404 0 l 1
 42 0 l 5
 32 61 l 5
51 800 m 5
 127 794 253 794 336 794 c 0
 422 794 551 796 678 801 c 1
 678 801 681 744 681 720 c 24
 681 661 672 588 672 588 c 1
 600 596 l 1
 593 655 568 732 525 771 c 1
 610 721 l 1
 353 728 l 2
 295 729 279 705 276 663 c 0
 260 443 263 202 267 145 c 0
 270 101 287 49 366 49 c 1
 350 1 l 1
 117 0 l 5
 117 0 136 72 144 136 c 4
 154 270 155 482 150 663 c 5
 143 711 133 743 57 739 c 5
 51 800 l 5
184 377 m 5
 184 443 l 5
 424 444 l 1
 568 461 l 1
 568 370 l 1
 443 377 309 379 184 377 c 5
EndSplineSet
Fore
SplineSet
32 61 m 5
 115 57 137 89 145 137 c 5
 267 146 l 1
 265 51 377 50 394 51 c 1
 404 0 l 1
 42 0 l 5
 32 61 l 5
51 800 m 5
 127 794 253 794 336 794 c 0
 422 794 551 796 678 801 c 1
 678 801 681 744 681 720 c 24
 681 661 672 588 672 588 c 1
 600 596 l 1
 593 655 568 732 525 771 c 1
 610 721 l 1
 353 728 l 2
 295 729 279 705 276 663 c 0
 260 443 263 202 267 145 c 0
 270 101 287 49 366 49 c 1
 350 1 l 1
 117 0 l 5
 117 0 136 72 144 136 c 4
 154 270 155 482 150 663 c 5
 143 711 133 743 57 739 c 5
 51 800 l 5
184 377 m 5
 184 443 l 5
 424 444 l 1
 568 461 l 1
 568 370 l 1
 443 377 309 379 184 377 c 5
EndSplineSet
Layer: 2
SplineSet
32 61 m 5
 115 57 137 89 145 137 c 5
 267 146 l 1
 265 51 377 50 394 51 c 1
 404 0 l 1
 42 0 l 5
 32 61 l 5
51 800 m 5
 127 794 253 794 336 794 c 0
 422 794 551 796 678 801 c 1
 678 801 681 744 681 720 c 24
 681 661 672 588 672 588 c 1
 600 596 l 1
 593 655 568 732 525 771 c 1
 610 721 l 1
 353 728 l 2
 295 729 279 705 276 663 c 0
 260 443 263 202 267 145 c 0
 270 101 287 49 366 49 c 1
 350 1 l 1
 117 0 l 5
 117 0 136 72 144 136 c 4
 154 270 155 482 150 663 c 5
 143 711 133 743 57 739 c 5
 51 800 l 5
184 377 m 5
 184 443 l 5
 424 444 l 1
 568 461 l 1
 568 370 l 1
 443 377 309 379 184 377 c 5
EndSplineSet
Colour: ff0000
EndChar

StartChar: P
Encoding: 80 80 56
GlifName: P_
Width: 649
VWidth: 79
Flags: HMW
LayerCount: 3
Back
SplineSet
17 797 m 1
 205 785 276 802 426 802 c 0
 581 802 639 717 640 607 c 0
 642 438 521 303 363 301 c 4
 312 300 244 314 244 314 c 5
 243 214 243 197 253 123 c 0
 260 65 305 61 358 61 c 1
 380 0 l 1
 312 -1 107 0 33 0 c 1
 23 61 l 1
 102 51 133 77 135 127 c 0
 144 342 147 467 139 627 c 0
 136 685 119 741 27 734 c 1
 17 797 l 1
246 409 m 5
 280 383 324 366 376 367 c 4
 489 368 526 464 527 571 c 0
 528 684 455 744 375 746 c 0
 329 747 275 738 252 729 c 1
 244 652 247 507 246 409 c 5
EndSplineSet
Fore
SplineSet
17 797 m 1
 205 785 276 802 426 802 c 0
 581 802 639 717 640 607 c 0
 642 438 521 303 363 301 c 4
 312 300 244 314 244 314 c 5
 243 214 243 197 253 123 c 0
 260 65 305 61 358 61 c 1
 380 0 l 1
 312 -1 107 0 33 0 c 1
 23 61 l 1
 102 51 133 77 135 127 c 0
 144 342 147 467 139 627 c 0
 136 685 119 741 27 734 c 1
 17 797 l 1
246 409 m 5
 280 383 324 366 376 367 c 4
 489 368 526 464 527 571 c 0
 528 684 455 744 375 746 c 0
 329 747 275 738 252 729 c 1
 244 652 247 507 246 409 c 5
EndSplineSet
Layer: 2
SplineSet
17 797 m 1
 205 785 276 802 426 802 c 0
 581 802 639 717 640 607 c 0
 642 438 521 303 363 301 c 4
 312 300 244 314 244 314 c 5
 243 214 243 197 253 123 c 0
 260 65 305 61 358 61 c 1
 380 0 l 1
 312 -1 107 0 33 0 c 1
 23 61 l 1
 102 51 133 77 135 127 c 0
 144 342 147 467 139 627 c 0
 136 685 119 741 27 734 c 1
 17 797 l 1
246 409 m 5
 280 383 324 366 376 367 c 4
 489 368 526 464 527 571 c 0
 528 684 455 744 375 746 c 0
 329 747 275 738 252 729 c 1
 244 652 247 507 246 409 c 5
EndSplineSet
EndChar

StartChar: S
Encoding: 83 83 57
GlifName: S_
Width: 635
VWidth: 153
Flags: HMW
LayerCount: 3
Back
SplineSet
63.5556640625 24 m 5
 58.5556640625 69 60.5556640625 149 72.5556640625 226 c 5
 168.555664062 215 l 5
 172.555664062 155 186.555664062 98 224.555664062 54 c 5
 165.555664062 68 138.555664062 124 127.555664062 179 c 5
 164.555664062 136 196.961914062 63.0537109375 296.555664062 54 c 4
 417.555664062 43 466.607421875 95.4609375 475.555664062 155 c 4
 501.555664062 328 139.555664062 345 104.555664062 554 c 4
 84.5556640625 680 174.555664062 814 375.555664062 810 c 4
 495.555664062 808 571.555664062 781 571.555664062 781 c 5
 577.555664062 733 574.555664062 642 567.555664062 598 c 5
 475.555664062 609 l 5
 473.555664062 657 455.555664062 733 428.555664062 795 c 6
 498.555664062 630 l 5
 479.555664062 653 454.555664062 754 340.555664062 755 c 4
 259.555664062 756 221.555664062 692 230.555664062 623 c 4
 252.555664062 452 571.555664062 459 591.555664062 233 c 4
 604.555664062 83 513.555664062 -16 293.555664062 -17 c 4
 160.556640625 -17.6044921875 63.5556640625 24 63.5556640625 24 c 5
EndSplineSet
Fore
SplineSet
63.5556640625 24 m 5
 58.5556640625 69 60.5556640625 149 72.5556640625 226 c 5
 168.555664062 215 l 5
 172.555664062 155 186.555664062 98 224.555664062 54 c 5
 165.555664062 68 138.555664062 124 127.555664062 179 c 5
 164.555664062 136 196.961914062 63.0537109375 296.555664062 54 c 4
 417.555664062 43 466.607421875 95.4609375 475.555664062 155 c 4
 501.555664062 328 139.555664062 345 104.555664062 554 c 4
 84.5556640625 680 174.555664062 814 375.555664062 810 c 4
 495.555664062 808 571.555664062 781 571.555664062 781 c 5
 577.555664062 733 574.555664062 642 567.555664062 598 c 5
 475.555664062 609 l 5
 473.555664062 657 455.555664062 733 428.555664062 795 c 6
 498.555664062 630 l 5
 479.555664062 653 454.555664062 754 340.555664062 755 c 4
 259.555664062 756 221.555664062 692 230.555664062 623 c 4
 252.555664062 452 571.555664062 459 591.555664062 233 c 4
 604.555664062 83 513.555664062 -16 293.555664062 -17 c 4
 160.556640625 -17.6044921875 63.5556640625 24 63.5556640625 24 c 5
EndSplineSet
Layer: 2
SplineSet
63.5556640625 24 m 5
 58.5556640625 69 60.5556640625 149 72.5556640625 226 c 5
 168.555664062 215 l 5
 172.555664062 155 186.555664062 98 224.555664062 54 c 5
 165.555664062 68 138.555664062 124 127.555664062 179 c 5
 164.555664062 136 196.961914062 63.0537109375 296.555664062 54 c 4
 417.555664062 43 466.607421875 95.4609375 475.555664062 155 c 4
 501.555664062 328 139.555664062 345 104.555664062 554 c 4
 84.5556640625 680 174.555664062 814 375.555664062 810 c 4
 495.555664062 808 571.555664062 781 571.555664062 781 c 5
 577.555664062 733 574.555664062 642 567.555664062 598 c 5
 475.555664062 609 l 5
 473.555664062 657 455.555664062 733 428.555664062 795 c 6
 498.555664062 630 l 5
 479.555664062 653 454.555664062 754 340.555664062 755 c 4
 259.555664062 756 221.555664062 692 230.555664062 623 c 4
 252.555664062 452 571.555664062 459 591.555664062 233 c 4
 604.555664062 83 513.555664062 -16 293.555664062 -17 c 4
 160.556640625 -17.6044921875 63.5556640625 24 63.5556640625 24 c 5
EndSplineSet
EndChar

StartChar: U
Encoding: 85 85 58
GlifName: U_
Width: 767
VWidth: 79
Flags: HMW
LayerCount: 3
Back
SplineSet
-9 800 m 1
 57 794 75 791 147 792 c 0
 188 792 278 793 339 801 c 1
 339 801 344 755 347 736 c 1
 246 750 220 679 215 612 c 0
 206 484 204 298 208 255 c 0
 218 138 282.870117188 53.642578125 417 65 c 0
 511.91796875 73.037109375 578.083007812 146.329101562 587 267 c 4
 596 388.791992188 587.444335938 515.369140625 591 641 c 1
 591 642 l 1
 590 733 534 738 464 728 c 1
 461 744 457 790 455 799 c 1
 521 793 569 790 641 791 c 0
 682 791 707 792 768 800 c 1
 768 800 773 754 776 735 c 1
 726 742 682 716 676 663 c 1
 670 499 674.931640625 346.626953125 666 240 c 4
 650 49 500 -14 371 -14 c 0
 256 -14 92 30 92 235 c 0
 92 359 103 556 99 640 c 0
 95 711 83 740 0 729 c 1
 -3 745 -7 791 -9 800 c 1
EndSplineSet
Fore
SplineSet
-9 800 m 1
 57 794 75 791 147 792 c 0
 188 792 278 793 339 801 c 1
 339 801 344 755 347 736 c 1
 246 750 220 679 215 612 c 0
 206 484 204 298 208 255 c 0
 218 138 282.870117188 53.642578125 417 65 c 0
 511.91796875 73.037109375 578.083007812 146.329101562 587 267 c 4
 596 388.791992188 587.444335938 515.369140625 591 641 c 1
 591 642 l 1
 590 733 534 738 464 728 c 1
 461 744 457 790 455 799 c 1
 521 793 569 790 641 791 c 0
 682 791 707 792 768 800 c 1
 768 800 773 754 776 735 c 1
 726 742 682 716 676 663 c 1
 670 499 674.931640625 346.626953125 666 240 c 4
 650 49 500 -14 371 -14 c 0
 256 -14 92 30 92 235 c 0
 92 359 103 556 99 640 c 0
 95 711 83 740 0 729 c 1
 -3 745 -7 791 -9 800 c 1
EndSplineSet
Layer: 2
SplineSet
-9 800 m 1
 57 794 75 791 147 792 c 0
 188 792 278 793 339 801 c 1
 339 801 344 755 347 736 c 1
 246 750 220 679 215 612 c 0
 206 484 204 298 208 255 c 0
 218 138 282.870117188 53.642578125 417 65 c 0
 511.91796875 73.037109375 578.083007812 146.329101562 587 267 c 4
 596 388.791992188 587.444335938 515.369140625 591 641 c 1
 591 642 l 1
 590 733 534 738 464 728 c 1
 461 744 457 790 455 799 c 1
 521 793 569 790 641 791 c 0
 682 791 707 792 768 800 c 1
 768 800 773 754 776 735 c 1
 726 742 682 716 676 663 c 1
 670 499 674.931640625 346.626953125 666 240 c 4
 650 49 500 -14 371 -14 c 0
 256 -14 92 30 92 235 c 0
 92 359 103 556 99 640 c 0
 95 711 83 740 0 729 c 1
 -3 745 -7 791 -9 800 c 1
EndSplineSet
Colour: ff0000
EndChar

StartChar: I
Encoding: 73 73 59
GlifName: I_
Width: 422
VWidth: 79
Flags: HMW
LayerCount: 3
Back
SplineSet
20 69 m 1
 93 54 145 63 150 146 c 0
 158 257 160 460 155 643 c 0
 153.376953125 702.416992188 116 739 28 729 c 1
 25 745 21 791 19 800 c 1
 85 794 133 791 205 792 c 0
 246 792 336 793 397 801 c 1
 397 801 402 755 405 736 c 1
 354 743 286.9921875 723.918945312 282 669 c 4
 270 537 265 354 273 139 c 0
 275.634765625 68.1904296875 337 62 389 69 c 1
 400 0 l 1
 28 -1 l 1
 20 69 l 1
EndSplineSet
Fore
SplineSet
20 69 m 1
 93 54 145 63 150 146 c 0
 158 257 160 460 155 643 c 0
 153.376953125 702.416992188 116 739 28 729 c 1
 25 745 21 791 19 800 c 1
 85 794 133 791 205 792 c 0
 246 792 336 793 397 801 c 1
 397 801 402 755 405 736 c 1
 354 743 286.9921875 723.918945312 282 669 c 4
 270 537 265 354 273 139 c 0
 275.634765625 68.1904296875 337 62 389 69 c 1
 400 0 l 1
 28 -1 l 1
 20 69 l 1
EndSplineSet
Layer: 2
SplineSet
20 69 m 1
 93 54 145 63 150 146 c 0
 158 257 160 460 155 643 c 0
 153.376953125 702.416992188 116 739 28 729 c 1
 25 745 21 791 19 800 c 1
 85 794 133 791 205 792 c 0
 246 792 336 793 397 801 c 1
 397 801 402 755 405 736 c 1
 354 743 286.9921875 723.918945312 282 669 c 4
 270 537 265 354 273 139 c 0
 275.634765625 68.1904296875 337 62 389 69 c 1
 400 0 l 1
 28 -1 l 1
 20 69 l 1
EndSplineSet
EndChar

StartChar: O
Encoding: 79 79 60
GlifName: O_
Width: 805
VWidth: 153
Flags: HMW
LayerCount: 3
Back
SplineSet
30.583984375 302.139648438 m 0
 18.4296875 592.892578125 197.4609375 795.4765625 433.303710938 804.151367188 c 0
 620.21875 811.026367188 760.799804688 709.872070312 761.84375 450.750976562 c 0
 762.978515625 217.6484375 655.857421875 -9.7607421875 368.8671875 -15.2470703125 c 0
 159.8671875 -19.2421875 39.353515625 108.328125 30.583984375 302.139648438 c 0
156.153320312 392.72265625 m 4
 157.5625 190.638671875 256.58984375 36.220703125 426.93359375 57.8310546875 c 4
 564.642578125 75.3017578125 638.107421875 200.548828125 637.102539062 412.618164062 c 0
 636.177734375 607.708007812 515.359375 754.041015625 362.029296875 731.96484375 c 4
 272.533203125 719.079101562 154.493164062 630.81640625 156.153320312 392.72265625 c 4
EndSplineSet
Fore
SplineSet
30.583984375 302.139648438 m 0
 18.4296875 592.892578125 197.4609375 795.4765625 433.303710938 804.151367188 c 0
 620.21875 811.026367188 760.799804688 709.872070312 761.84375 450.750976562 c 0
 762.978515625 217.6484375 655.857421875 -9.7607421875 368.8671875 -15.2470703125 c 0
 159.8671875 -19.2421875 39.353515625 108.328125 30.583984375 302.139648438 c 0
156.153320312 392.72265625 m 4
 157.5625 190.638671875 256.58984375 36.220703125 426.93359375 57.8310546875 c 4
 564.642578125 75.3017578125 638.107421875 200.548828125 637.102539062 412.618164062 c 0
 636.177734375 607.708007812 515.359375 754.041015625 362.029296875 731.96484375 c 4
 272.533203125 719.079101562 154.493164062 630.81640625 156.153320312 392.72265625 c 4
EndSplineSet
Layer: 2
SplineSet
30.583984375 302.139648438 m 0
 18.4296875 592.892578125 197.4609375 795.4765625 433.303710938 804.151367188 c 0
 620.21875 811.026367188 760.799804688 709.872070312 761.84375 450.750976562 c 0
 762.978515625 217.6484375 655.857421875 -9.7607421875 368.8671875 -15.2470703125 c 0
 159.8671875 -19.2421875 39.353515625 108.328125 30.583984375 302.139648438 c 0
156.153320312 392.72265625 m 4
 157.5625 190.638671875 256.58984375 36.220703125 426.93359375 57.8310546875 c 4
 564.642578125 75.3017578125 638.107421875 200.548828125 637.102539062 412.618164062 c 0
 636.177734375 607.708007812 515.359375 754.041015625 362.029296875 731.96484375 c 4
 272.533203125 719.079101562 154.493164062 630.81640625 156.153320312 392.72265625 c 4
EndSplineSet
EndChar

StartChar: T
Encoding: 84 84 81
GlifName: T_
Width: 660
VWidth: 79
Flags: HMW
LayerCount: 3
Back
SplineSet
-6 594 m 1
 -1 641 6 743 7 800 c 1
 115 794 202 791 320 792 c 0
 389 792 565 793 667 801 c 1
 665.043945312 773.125 655 592.036132812 655 588 c 1
 583 596 l 1
 576 655 551 732 508 771 c 1
 593 702 l 1
 504 733 405 721 320 728 c 1
 229 727 120 723 83 724 c 5
 137 761 l 5
 99 725 81 641 77 605 c 5
 -6 594 l 1
145 61 m 1
 221 57 244 89 251 137 c 1
 376 146 l 1
 374 51 460 50 478 51 c 1
 488 0 l 1
 155 0 l 1
 145 61 l 1
196 759 m 1
 259 757 400 780 400 780 c 1
 375 588 372 202 376 145 c 0
 379 101 368 49 450 49 c 1
 434 1 l 1
 222 0 l 1
 222 0 245 72 250 136 c 0
 260 266 264 516 256 699 c 0
 254 743 233 746 203 746 c 1
 196 759 l 1
EndSplineSet
Fore
SplineSet
-6 594 m 1
 -1 641 6 743 7 800 c 1
 115 794 201.995762788 792 320 792 c 0
 389 792 565 793 667 801 c 1
 665.043945312 773.125 655 592.036132812 655 588 c 1
 623 596 l 1
 612.266666667 655 543.933333333 742 508 771 c 1
 593 702 l 1
 504 733 405 721 320 728 c 1
 221.320675105 727 103.122362869 723 63 724 c 1
 137 761 l 1
 67.3333333333 725 34.3333333333 641 27 605 c 1
 -6 594 l 1
230 779 m 5
 289.911764706 778.904761905 424 780 424 780 c 5
 355.869436015 523.513188078 387.746768357 206.801180931 390.662109375 128.834960938 c 5
 398.766023664 50.8797997192 475.156018494 50.0642223687 492 51 c 5
 502 0 l 5
 236 0 l 5
 151 0 l 5
 141 51 l 5
 207.460609635 47.3469657484 239.763738361 67.9240473113 255.483398438 102.810546875 c 5
 281.742035078 202.563611784 265 488.033218405 265 599 c 5
 259.378684456 683.833555947 251.093427061 720.130193633 230 779 c 5
EndSplineSet
Layer: 2
SplineSet
-6 594 m 1
 -1 641 6 743 7 800 c 1
 115 794 202 791 320 792 c 0
 389 792 565 793 667 801 c 1
 665.043945312 773.125 655 592.036132812 655 588 c 1
 583 596 l 1
 576 655 551 732 508 771 c 1
 593 702 l 1
 504 733 405 721 320 728 c 1
 229 727 120 723 83 724 c 5
 137 761 l 5
 99 725 81 641 77 605 c 5
 -6 594 l 1
145 61 m 1
 221 57 244 89 251 137 c 1
 376 146 l 1
 374 51 460 50 478 51 c 1
 488 0 l 1
 155 0 l 1
 145 61 l 1
196 759 m 1
 259 757 400 780 400 780 c 1
 375 588 372 202 376 145 c 0
 379 101 368 49 450 49 c 1
 434 1 l 1
 222 0 l 1
 222 0 245 72 250 136 c 0
 260 266 264 516 256 699 c 0
 254 743 233 746 203 746 c 1
 196 759 l 1
EndSplineSet
EndChar

StartChar: R
Encoding: 82 82 82
GlifName: R_
Width: 788
VWidth: 79
Flags: HMW
LayerCount: 3
Back
SplineSet
17 797 m 1
 205 785 276 802 426 802 c 0
 581 802 639 717 640 607 c 0
 642 438 521 343 363 341 c 0
 312 340 244 334 244 334 c 1
 243 234 243 197 253 123 c 0
 260 65 305 61 358 61 c 1
 380 0 l 1
 312 -1 107 0 33 0 c 1
 23 61 l 1
 102 51 133 77 135 127 c 0
 144 342 147 467 139 627 c 0
 136 685 119 741 27 734 c 1
 17 797 l 1
246 429 m 1
 273 413 324.350585938 400.890625 376 407 c 0
 469 418 516 464 517 571 c 0
 518 684 455 744 375 746 c 0
 329 747 275 738 252 729 c 1
 244 652 247 527 246 429 c 1
383 351 m 1
 412 344 429 387 463 397 c 1
 463 397 596 72 766 63 c 5
 778 0 l 1
 602 0 l 1
 510.83984375 6.859375 419.147460938 276.52734375 383 351 c 1
EndSplineSet
Fore
SplineSet
17 797 m 1
 205 785 276 802 426 802 c 0
 581 802 639 717 640 607 c 0
 642 438 521 343 363 341 c 0
 312 340 244 334 244 334 c 1
 243 234 243 197 253 123 c 0
 260 65 305 61 358 61 c 1
 380 0 l 1
 312 -1 107 0 33 0 c 1
 23 61 l 1
 102 51 133 77 135 127 c 0
 144 342 147 467 139 627 c 0
 136 685 119 741 27 734 c 1
 17 797 l 1
246 429 m 1
 273 413 324.350585938 400.890625 376 407 c 0
 469 418 516 464 517 571 c 0
 518 684 455 744 375 746 c 0
 329 747 275 738 252 729 c 1
 244 652 247 527 246 429 c 1
383 351 m 1
 412 344 429 387 463 397 c 1
 463 397 596 72 766 63 c 5
 778 0 l 1
 602 0 l 1
 510.83984375 6.859375 419.147460938 276.52734375 383 351 c 1
EndSplineSet
Layer: 2
SplineSet
17 797 m 1
 205 785 276 802 426 802 c 0
 581 802 639 717 640 607 c 0
 642 438 521 343 363 341 c 0
 312 340 244 334 244 334 c 1
 243 234 243 197 253 123 c 0
 260 65 305 61 358 61 c 1
 380 0 l 1
 312 -1 107 0 33 0 c 1
 23 61 l 1
 102 51 133 77 135 127 c 0
 144 342 147 467 139 627 c 0
 136 685 119 741 27 734 c 1
 17 797 l 1
246 429 m 1
 273 413 324.350585938 400.890625 376 407 c 0
 469 418 516 464 517 571 c 0
 518 684 455 744 375 746 c 0
 329 747 275 738 252 729 c 1
 244 652 247 527 246 429 c 1
383 351 m 1
 412 344 429 387 463 397 c 1
 463 397 596 72 766 63 c 5
 778 0 l 1
 602 0 l 1
 510.83984375 6.859375 419.147460938 276.52734375 383 351 c 1
EndSplineSet
EndChar

StartChar: Q
Encoding: 81 81 83
GlifName: Q_
Width: 873
VWidth: 153
Flags: HMW
LayerCount: 3
Back
SplineSet
264 12 m 1
 335 21 l 1
 391 -80 597 -126 710 -128 c 0
 833 -130 922 -96 922 -96 c 1
 937.965820312 -130 l 1
 928 -214 l 1
 865 -234 798 -240 685 -239 c 0
 441 -235 293 -58 264 12 c 1
EndSplineSet
Refer: 60 79 N 1 0 0 1 29.9998 0 2
Fore
SplineSet
264 12 m 1
 335 21 l 1
 391 -80 597 -126 710 -128 c 0
 833 -130 922 -96 922 -96 c 1
 937.965820312 -130 l 1
 928 -214 l 1
 865 -234 798 -240 685 -239 c 0
 441 -235 293 -58 264 12 c 1
EndSplineSet
Refer: 60 79 N 1 0 0 1 29.9998 0 2
Layer: 2
SplineSet
264 12 m 1
 335 21 l 1
 391 -80 597 -126 710 -128 c 0
 833 -130 922 -96 922 -96 c 1
 937.965820312 -130 l 1
 928 -214 l 1
 865 -234 798 -240 685 -239 c 0
 441 -235 293 -58 264 12 c 1
EndSplineSet
Refer: 60 79 N 1 0 0 1 29.9998 0 2
EndChar

StartChar: L
Encoding: 76 76 84
GlifName: L_
Width: 679
VWidth: 79
Flags: HMW
LayerCount: 3
Back
SplineSet
60 0 m 5
 52 69 l 5
 145 46 148 89 155 137 c 1
 269 135 l 1
 270 117 275 77 311 73 c 0
 401 64 505 79 542 86 c 1
 487 29 l 1
 520 68 555 145 562 204 c 1
 634 212 l 1
 634 212 643 139 643 80 c 24
 643 56 636 0 636 0 c 1
 440 0 256 0 60 0 c 5
61 800 m 1
 137 794 193 792 276 792 c 0
 314 792 351 794 396 796 c 1
 392 732 l 1
 375 732 357 733 339 733 c 0
 289 733 287 693 285 673 c 0
 263 471 267 198 269 145 c 0
 271 99 279 44 338 44 c 1
 322 26 l 1
 127 30 l 1
 127 30 147 72 155 136 c 0
 165 265 165 489 160 663 c 1
 153 711 143 743 67 739 c 1
 61 800 l 1
EndSplineSet
Fore
SplineSet
60 0 m 5
 52 69 l 5
 145 46 148 89 155 137 c 1
 269 135 l 1
 270 117 275 77 311 73 c 0
 401 64 505 79 542 86 c 1
 487 29 l 1
 520 68 555 145 562 204 c 1
 634 212 l 1
 634 212 643 139 643 80 c 24
 643 56 636 0 636 0 c 1
 440 0 256 0 60 0 c 5
61 800 m 1
 137 794 193 792 276 792 c 0
 314 792 351 794 396 796 c 1
 392 732 l 1
 375 732 357 733 339 733 c 0
 289 733 287 693 285 673 c 0
 263 471 267 198 269 145 c 0
 271 99 279 44 338 44 c 1
 322 26 l 1
 127 30 l 1
 127 30 147 72 155 136 c 0
 165 265 165 489 160 663 c 1
 153 711 143 743 67 739 c 1
 61 800 l 1
EndSplineSet
Layer: 2
SplineSet
60 0 m 5
 52 69 l 5
 145 46 148 89 155 137 c 1
 269 135 l 1
 270 117 275 77 311 73 c 0
 401 64 505 79 542 86 c 1
 487 29 l 1
 520 68 555 145 562 204 c 1
 634 212 l 1
 634 212 643 139 643 80 c 24
 643 56 636 0 636 0 c 1
 440 0 256 0 60 0 c 5
61 800 m 1
 137 794 193 792 276 792 c 0
 314 792 351 794 396 796 c 1
 392 732 l 1
 375 732 357 733 339 733 c 0
 289 733 287 693 285 673 c 0
 263 471 267 198 269 145 c 0
 271 99 279 44 338 44 c 1
 322 26 l 1
 127 30 l 1
 127 30 147 72 155 136 c 0
 165 265 165 489 160 663 c 1
 153 711 143 743 67 739 c 1
 61 800 l 1
EndSplineSet
EndChar

StartChar: G
Encoding: 71 71 85
GlifName: G_
Width: 826
VWidth: 79
Flags: HMW
LayerCount: 3
Back
SplineSet
36.021484375 299 m 0
 34.021484375 537 171.021484375 802 502.021484375 802 c 0
 623.021484375 802 702.021484375 767 702.021484375 767 c 1
 705.021484375 716 711.021484375 616 708.021484375 574 c 1
 642.021484375 577 l 1
 610.021484375 665 547.021484375 748 501.021484375 755 c 1
 515.021484375 776 697.021484375 747 644.021484375 652 c 1
 627.021484375 656 550.021484375 734 427.021484375 734 c 0
 277.021484375 734 173.021484375 602 170.021484375 406 c 0
 167.021484375 232 238.021484375 50 425.021484375 47 c 0
 534.021484375 45 580.021484375 97 625.021484375 149 c 1
 694.021484375 116 l 1
 621.021484375 1 498.021484375 -27 391.021484375 -27 c 0
 177.021484375 -27 37.021484375 92 36.021484375 299 c 0
554.021484375 46 m 5
 578.974609375 108.3828125 581.5234375 195.282226562 580.663085938 266.15625 c 0
 577.383789062 306.723632812 552.842773438 332.622070312 484.021484375 329 c 1
 478.021484375 390 l 1
 591.021484375 382 665.021484375 385 773.021484375 390 c 1
 783.021484375 330 l 1
 766.173828125 330.935546875 704.649414062 338.00390625 698.478515625 261.010742188 c 1
 699.796875 208.198242188 698.421875 151.206054688 694.021484375 116 c 1
 554.021484375 46 l 5
EndSplineSet
Fore
SplineSet
36.021484375 299 m 0
 34.021484375 537 171.021484375 802 502.021484375 802 c 0
 623.021484375 802 702.021484375 767 702.021484375 767 c 1
 705.021484375 716 711.021484375 616 708.021484375 574 c 1
 642.021484375 577 l 1
 610.021484375 665 547.021484375 748 501.021484375 755 c 1
 515.021484375 776 697.021484375 747 644.021484375 652 c 1
 627.021484375 656 550.021484375 734 427.021484375 734 c 0
 277.021484375 734 173.021484375 602 170.021484375 406 c 0
 167.021484375 232 238.021484375 50 425.021484375 47 c 0
 534.021484375 45 580.021484375 97 625.021484375 149 c 1
 694.021484375 116 l 1
 621.021484375 1 498.021484375 -27 391.021484375 -27 c 0
 177.021484375 -27 37.021484375 92 36.021484375 299 c 0
554.021484375 46 m 5
 578.974609375 108.3828125 581.5234375 195.282226562 580.663085938 266.15625 c 0
 577.383789062 306.723632812 552.842773438 332.622070312 484.021484375 329 c 1
 478.021484375 390 l 1
 591.021484375 382 665.021484375 385 773.021484375 390 c 1
 783.021484375 330 l 1
 766.173828125 330.935546875 704.649414062 338.00390625 698.478515625 261.010742188 c 1
 699.796875 208.198242188 698.421875 151.206054688 694.021484375 116 c 1
 554.021484375 46 l 5
EndSplineSet
Layer: 2
SplineSet
36.021484375 299 m 0
 34.021484375 537 171.021484375 802 502.021484375 802 c 0
 623.021484375 802 702.021484375 767 702.021484375 767 c 1
 705.021484375 716 711.021484375 616 708.021484375 574 c 1
 642.021484375 577 l 1
 610.021484375 665 547.021484375 748 501.021484375 755 c 1
 515.021484375 776 697.021484375 747 644.021484375 652 c 1
 627.021484375 656 550.021484375 734 427.021484375 734 c 0
 277.021484375 734 173.021484375 602 170.021484375 406 c 0
 167.021484375 232 238.021484375 50 425.021484375 47 c 0
 534.021484375 45 580.021484375 97 625.021484375 149 c 1
 694.021484375 116 l 1
 621.021484375 1 498.021484375 -27 391.021484375 -27 c 0
 177.021484375 -27 37.021484375 92 36.021484375 299 c 0
554.021484375 46 m 5
 578.974609375 108.3828125 581.5234375 195.282226562 580.663085938 266.15625 c 0
 577.383789062 306.723632812 552.842773438 332.622070312 484.021484375 329 c 1
 478.021484375 390 l 1
 591.021484375 382 665.021484375 385 773.021484375 390 c 1
 783.021484375 330 l 1
 766.173828125 330.935546875 704.649414062 338.00390625 698.478515625 261.010742188 c 1
 699.796875 208.198242188 698.421875 151.206054688 694.021484375 116 c 1
 554.021484375 46 l 5
EndSplineSet
Colour: ff0000
EndChar

StartChar: D
Encoding: 68 68 86
GlifName: D_
Width: 798
VWidth: 79
Flags: HMW
LayerCount: 3
Back
SplineSet
17 798 m 1
 209 786 356 803 446 803 c 0
 614 803 768 711 766 463 c 0
 762 142 597 4 320 0 c 0
 252 -1 107 0 33 0 c 1
 23 61 l 1
 102 51 133 77 135 127 c 0
 144 342 147 468 139 628 c 0
 136 686 119 742 27 735 c 1
 17 798 l 1
252 719 m 1
 236 483 240 338 253 142 c 1
 260 80 305 74 358 75 c 0
 549 77 646 196 652 372 c 0
 660 596 541 734 373 738 c 0
 319 739 279 729 252 719 c 1
EndSplineSet
Fore
SplineSet
17 798 m 1
 209 786 356 803 446 803 c 0
 614 803 768 711 766 463 c 0
 762 142 597 4 320 0 c 0
 252 -1 107 0 33 0 c 1
 23 61 l 1
 102 51 133 77 135 127 c 0
 144 342 147 468 139 628 c 0
 136 686 119 742 27 735 c 1
 17 798 l 1
252 719 m 1
 236 483 240 338 253 142 c 1
 260 80 305 74 358 75 c 0
 549 77 646 196 652 372 c 0
 660 596 541 734 373 738 c 0
 319 739 279 729 252 719 c 1
EndSplineSet
Layer: 2
SplineSet
17 798 m 1
 209 786 356 803 446 803 c 0
 614 803 768 711 766 463 c 0
 762 142 597 4 320 0 c 0
 252 -1 107 0 33 0 c 1
 23 61 l 1
 102 51 133 77 135 127 c 0
 144 342 147 468 139 628 c 0
 136 686 119 742 27 735 c 1
 17 798 l 1
252 719 m 1
 236 483 240 338 253 142 c 1
 260 80 305 74 358 75 c 0
 549 77 646 196 652 372 c 0
 660 596 541 734 373 738 c 0
 319 739 279 729 252 719 c 1
EndSplineSet
Colour: ff0000
EndChar

StartChar: J
Encoding: 74 74 87
GlifName: J_
Width: 422
VWidth: 79
Flags: HMW
LayerCount: 3
Back
SplineSet
-34 -193 m 1
 -7 -142 l 1
 173 -187 162 -18 166 84 c 0
 171 205 158 460 155 643 c 0
 154 734 68 739 38 729 c 1
 35 745 31 791 29 800 c 1
 95 794 133 791 205 792 c 0
 246 792 326 793 387 801 c 1
 387 801 392 755 395 736 c 1
 344 743 285 720 282 665 c 0
 271 415 272 261 278 39 c 0
 282 -94 243 -226 76 -227 c 0
 21 -227 -20 -201 -34 -193 c 1
EndSplineSet
Fore
SplineSet
-34 -193 m 1
 -7 -142 l 1
 173 -187 162 -18 166 84 c 0
 171 205 158 460 155 643 c 0
 154 734 68 739 38 729 c 1
 35 745 31 791 29 800 c 1
 95 794 133 791 205 792 c 0
 246 792 326 793 387 801 c 1
 387 801 392 755 395 736 c 1
 344 743 285 720 282 665 c 0
 271 415 272 261 278 39 c 0
 282 -94 243 -226 76 -227 c 0
 21 -227 -20 -201 -34 -193 c 1
EndSplineSet
Layer: 2
SplineSet
-34 -193 m 1
 -7 -142 l 1
 173 -187 162 -18 166 84 c 0
 171 205 158 460 155 643 c 0
 154 734 68 739 38 729 c 1
 35 745 31 791 29 800 c 1
 95 794 133 791 205 792 c 0
 246 792 326 793 387 801 c 1
 387 801 392 755 395 736 c 1
 344 743 285 720 282 665 c 0
 271 415 272 261 278 39 c 0
 282 -94 243 -226 76 -227 c 0
 21 -227 -20 -201 -34 -193 c 1
EndSplineSet
EndChar

StartChar: K
Encoding: 75 75 88
GlifName: K_
Width: 752
VWidth: 79
Flags: HMW
LayerCount: 3
Back
SplineSet
22 64 m 1
 98 60 133 89 140 137 c 1
 248 146 l 1
 246 51 310 53 328 54 c 1
 338 0 l 1
 32 0 l 1
 22 64 l 1
23 798 m 1
 106 796 272 810 272 810 c 1
 247 597 244 208 248 145 c 0
 251 101 218 52 300 52 c 1
 284 1 l 1
 109 0 l 1
 109 0 131 72 139 136 c 0
 149 271 148 489 143 679 c 0
 138 723 108 735 30 735 c 1
 23 798 l 1
194 489 m 5
 225 477 258 458 345 458 c 1
 365 468 475 629 518 692 c 0
 532 713 528 739 450 736 c 1
 441 799 l 1
 558 797 709 802 709 802 c 1
 718 737 l 1
 678 738 650 731 621 699 c 0
 560 630 420 416 389 389 c 1
 358 387 281 390 229 380 c 1
 194 489 l 5
253 469 m 1
 282 462 342 456 376 466 c 1
 376 466 616 60 766 61 c 1
 778 0 l 1
 664 5 586 3 472 0 c 1
 458 57 l 1
 494 53 552 61 507 126 c 1
 485 156 306 390 253 469 c 1
EndSplineSet
Fore
SplineSet
22 64 m 1
 98 60 133 89 140 137 c 1
 248 146 l 1
 246 51 310 53 328 54 c 1
 338 0 l 1
 32 0 l 1
 22 64 l 1
23 798 m 1
 106 796 272 810 272 810 c 1
 247 597 244 208 248 145 c 0
 251 101 218 52 300 52 c 1
 284 1 l 1
 109 0 l 1
 109 0 131 72 139 136 c 0
 149 271 148 489 143 679 c 0
 138 723 108 735 30 735 c 1
 23 798 l 1
194 489 m 5
 225 477 258 458 345 458 c 1
 365 468 475 629 518 692 c 0
 532 713 528 739 450 736 c 1
 441 799 l 1
 558 797 709 802 709 802 c 1
 718 737 l 1
 678 738 650 731 621 699 c 0
 560 630 420 416 389 389 c 1
 358 387 281 390 229 380 c 1
 194 489 l 5
253 469 m 1
 282 462 342 456 376 466 c 1
 376 466 616 60 766 61 c 1
 778 0 l 1
 664 5 586 3 472 0 c 1
 458 57 l 1
 494 53 552 61 507 126 c 1
 485 156 306 390 253 469 c 1
EndSplineSet
Layer: 2
SplineSet
22 64 m 1
 98 60 133 89 140 137 c 1
 248 146 l 1
 246 51 310 53 328 54 c 1
 338 0 l 1
 32 0 l 1
 22 64 l 1
23 798 m 1
 106 796 272 810 272 810 c 1
 247 597 244 208 248 145 c 0
 251 101 218 52 300 52 c 1
 284 1 l 1
 109 0 l 1
 109 0 131 72 139 136 c 0
 149 271 148 489 143 679 c 0
 138 723 108 735 30 735 c 1
 23 798 l 1
194 489 m 5
 225 477 258 458 345 458 c 1
 365 468 475 629 518 692 c 0
 532 713 528 739 450 736 c 1
 441 799 l 1
 558 797 709 802 709 802 c 1
 718 737 l 1
 678 738 650 731 621 699 c 0
 560 630 420 416 389 389 c 1
 358 387 281 390 229 380 c 1
 194 489 l 5
253 469 m 1
 282 462 342 456 376 466 c 1
 376 466 616 60 766 61 c 1
 778 0 l 1
 664 5 586 3 472 0 c 1
 458 57 l 1
 494 53 552 61 507 126 c 1
 485 156 306 390 253 469 c 1
EndSplineSet
Colour: ff0000
EndChar

StartChar: Z
Encoding: 90 90 89
GlifName: Z_
Width: 679
VWidth: 79
Flags: HMW
LayerCount: 3
Back
SplineSet
12 0 m 1
 13 14 17 46 19 71 c 1
 93 128 347 542 447 702 c 0
 458 720 463 733 413 733 c 0
 340 733 221 731 163 727 c 1
 140 687 137 637 132 596 c 1
 60 588 l 1
 60 588 51 661 51 720 c 0
 51 744 54 801 54 801 c 1
 101 803 210 796 296 796 c 0
 379 796 581 794 657 800 c 1
 645 739 l 1
 556 672 196 74 177 56 c 1
 136 115 l 1
 167 85 251 76 307 73 c 0
 384 68 500 75 547 82 c 1
 567 120 574 166 578 204 c 1
 650 212 l 1
 650 212 659 139 659 80 c 0
 659 56 652 0 652 0 c 1
 439 0 225 0 12 0 c 1
EndSplineSet
Fore
SplineSet
12 0 m 1
 13 14 17 46 19 71 c 1
 93 128 347 542 447 702 c 0
 458 720 463 733 413 733 c 0
 340 733 221 731 163 727 c 1
 140 687 137 637 132 596 c 1
 60 588 l 1
 60 588 51 661 51 720 c 0
 51 744 54 801 54 801 c 1
 101 803 210 796 296 796 c 0
 379 796 581 794 657 800 c 1
 645 739 l 1
 556 672 196 74 177 56 c 1
 136 115 l 1
 167 85 251 76 307 73 c 0
 384 68 500 75 547 82 c 1
 567 120 574 166 578 204 c 1
 650 212 l 1
 650 212 659 139 659 80 c 0
 659 56 652 0 652 0 c 1
 439 0 225 0 12 0 c 1
EndSplineSet
Layer: 2
SplineSet
12 0 m 1
 13 14 17 46 19 71 c 1
 93 128 347 542 447 702 c 0
 458 720 463 733 413 733 c 0
 340 733 221 731 163 727 c 1
 140 687 137 637 132 596 c 1
 60 588 l 1
 60 588 51 661 51 720 c 0
 51 744 54 801 54 801 c 1
 101 803 210 796 296 796 c 0
 379 796 581 794 657 800 c 1
 645 739 l 1
 556 672 196 74 177 56 c 1
 136 115 l 1
 167 85 251 76 307 73 c 0
 384 68 500 75 547 82 c 1
 567 120 574 166 578 204 c 1
 650 212 l 1
 650 212 659 139 659 80 c 0
 659 56 652 0 652 0 c 1
 439 0 225 0 12 0 c 1
EndSplineSet
EndChar

StartChar: Y
Encoding: 89 89 90
GlifName: Y_
Width: 724
VWidth: 79
Flags: HMW
LayerCount: 3
Back
SplineSet
-16 802 m 1
 98 797 182 799 296 802 c 1
 310 748 l 1
 234 742 211 725 236 670 c 1
 262 622 290 553 326 488 c 1
 337 453 364 385 364 385 c 1
 408 457 474 559 535 665 c 5
 563 724 514 742 446 739 c 1
 437 802 l 1
 534 796 630 798 727 802 c 1
 738 744 l 1
 678 742 649 710 620 662 c 0
 524 505 443 402 406 322 c 1
 377 319 338 310 304 300 c 1
 250 402 218 483 111 668 c 1
 82 733 39 745 -8 744 c 1
 -16 802 l 1
195 69 m 1
 268 54 289 93 296 145 c 0
 303 196 304 249 290 373 c 1
 421 385 l 1
 399 243 412 169 423 122 c 0
 434 73 455 62 507 69 c 1
 528 0 l 1
 203 -1 l 1
 195 69 l 1
EndSplineSet
Fore
SplineSet
-16 802 m 1
 98 797 182 799 296 802 c 1
 310 748 l 1
 234 742 211 725 236 670 c 1
 262 622 290 553 326 488 c 1
 337 453 364 385 364 385 c 1
 408 457 474 559 535 665 c 5
 563 724 514 742 446 739 c 1
 437 802 l 1
 534 796 630 798 727 802 c 1
 738 744 l 1
 678 742 649 710 620 662 c 0
 524 505 443 402 406 322 c 1
 377 319 338 310 304 300 c 1
 250 402 218 483 111 668 c 1
 82 733 39 745 -8 744 c 1
 -16 802 l 1
195 69 m 1
 268 54 289 93 296 145 c 0
 303 196 304 249 290 373 c 1
 421 385 l 1
 399 243 412 169 423 122 c 0
 434 73 455 62 507 69 c 1
 528 0 l 1
 203 -1 l 1
 195 69 l 1
EndSplineSet
Layer: 2
SplineSet
-16 802 m 1
 98 797 182 799 296 802 c 1
 310 748 l 1
 234 742 211 725 236 670 c 1
 262 622 290 553 326 488 c 1
 337 453 364 385 364 385 c 1
 408 457 474 559 535 665 c 5
 563 724 514 742 446 739 c 1
 437 802 l 1
 534 796 630 798 727 802 c 1
 738 744 l 1
 678 742 649 710 620 662 c 0
 524 505 443 402 406 322 c 1
 377 319 338 310 304 300 c 1
 250 402 218 483 111 668 c 1
 82 733 39 745 -8 744 c 1
 -16 802 l 1
195 69 m 1
 268 54 289 93 296 145 c 0
 303 196 304 249 290 373 c 1
 421 385 l 1
 399 243 412 169 423 122 c 0
 434 73 455 62 507 69 c 1
 528 0 l 1
 203 -1 l 1
 195 69 l 1
EndSplineSet
Colour: ff0000
EndChar

StartChar: X
Encoding: 88 88 91
GlifName: X_
Width: 806
VWidth: 79
Flags: HMW
LayerCount: 3
Back
SplineSet
2 801 m 1
 128 790 247 792 346 800 c 1
 365 736 l 1
 263 735 256.194335938 699.609375 286 650 c 0
 344.83203125 552.077148438 409 443 418 430 c 1
 411 434 l 1
 479 340 605 56 769 72 c 5
 785 1 l 1
 419 1 l 1
 407 62 l 1
 455 60 524 62 469 152 c 0
 433 210 373 315 329 373 c 1
 337 373 l 1
 294 449 226.399414062 532.103515625 159 632 c 0
 103 715 75 745 12 734 c 5
 2 801 l 1
-6 66 m 5
 91 56 125.25 104.639648438 162 147 c 0
 205.176757812 196.767578125 288 330 341 414 c 1
 379 442 l 1
 430 507 495 601 522 653 c 0
 555.903320312 718.295898438 539 730 467 731 c 1
 459 801 l 1
 557 793 674 793 761 801 c 1
 772 739 l 5
 683 749 651.447265625 695.252929688 598 623 c 0
 544 550 464 437 428 385 c 1
 409 372 l 1
 355 313 313 234 270 163 c 1
 245 116 218 61 310 61 c 5
 319 1 l 5
 2 1 l 5
 -6 66 l 5
EndSplineSet
Fore
SplineSet
2 801 m 1
 128 790 247 792 346 800 c 1
 365 736 l 1
 263 735 256.194335938 699.609375 286 650 c 0
 344.83203125 552.077148438 409 443 418 430 c 1
 411 434 l 1
 479 340 605 56 769 72 c 5
 785 1 l 1
 419 1 l 1
 407 62 l 1
 455 60 524 62 469 152 c 0
 433 210 373 315 329 373 c 1
 337 373 l 1
 294 449 226.399414062 532.103515625 159 632 c 0
 103 715 75 745 12 734 c 5
 2 801 l 1
-6 66 m 5
 91 56 125.25 104.639648438 162 147 c 0
 205.176757812 196.767578125 288 330 341 414 c 1
 379 442 l 1
 430 507 495 601 522 653 c 0
 555.903320312 718.295898438 539 730 467 731 c 1
 459 801 l 1
 557 793 674 793 761 801 c 1
 772 739 l 5
 683 749 651.447265625 695.252929688 598 623 c 0
 544 550 464 437 428 385 c 1
 409 372 l 1
 355 313 313 234 270 163 c 1
 245 116 218 61 310 61 c 5
 319 1 l 5
 2 1 l 5
 -6 66 l 5
EndSplineSet
Layer: 2
SplineSet
2 801 m 1
 128 790 247 792 346 800 c 1
 365 736 l 1
 263 735 256.194335938 699.609375 286 650 c 0
 344.83203125 552.077148438 409 443 418 430 c 1
 411 434 l 1
 479 340 605 56 769 72 c 5
 785 1 l 1
 419 1 l 1
 407 62 l 1
 455 60 524 62 469 152 c 0
 433 210 373 315 329 373 c 1
 337 373 l 1
 294 449 226.399414062 532.103515625 159 632 c 0
 103 715 75 745 12 734 c 5
 2 801 l 1
-6 66 m 5
 91 56 125.25 104.639648438 162 147 c 0
 205.176757812 196.767578125 288 330 341 414 c 1
 379 442 l 1
 430 507 495 601 522 653 c 0
 555.903320312 718.295898438 539 730 467 731 c 1
 459 801 l 1
 557 793 674 793 761 801 c 1
 772 739 l 5
 683 749 651.447265625 695.252929688 598 623 c 0
 544 550 464 437 428 385 c 1
 409 372 l 1
 355 313 313 234 270 163 c 1
 245 116 218 61 310 61 c 5
 319 1 l 5
 2 1 l 5
 -6 66 l 5
EndSplineSet
Colour: ff0000
EndChar

StartChar: N
Encoding: 78 78 92
GlifName: N_
Width: 926
VWidth: 79
Flags: HMW
LayerCount: 3
Back
SplineSet
13 69 m 5
 86 54 133 79 138 162 c 4
 146 273 149 479 145 643 c 4
 144 734 98 739 28 729 c 5
 25 745 21 791 19 800 c 5
 118 791 179 790 293 794 c 5
 370 677 656 266 744 140 c 4
 749 132 683 104 688 96 c 5
 706 177 704 518 695 643 c 4
 688 734 646 739 576 729 c 5
 573 745 569 791 567 800 c 5
 633 794 653 791 725 792 c 4
 766 792 836 793 897 801 c 5
 897 801 902 755 905 736 c 5
 854 743 807 720 802 665 c 4
 787 486 790 215 798 0 c 5
 770 -4 753 -5 703 -16 c 5
 701 -17 l 5
 521 255 391 446 242 650 c 5
 230 468 234 186 240 139 c 4
 251 69 307 62 359 69 c 5
 370 0 l 5
 21 -1 l 5
 13 69 l 5
EndSplineSet
Fore
SplineSet
13 69 m 5
 86 54 133 79 138 162 c 4
 146 273 149 479 145 643 c 4
 144 734 98 739 28 729 c 5
 25 745 21 791 19 800 c 5
 118 791 179 790 293 794 c 5
 370 677 656 266 744 140 c 4
 749 132 683 104 688 96 c 5
 706 177 704 518 695 643 c 4
 688 734 646 739 576 729 c 5
 573 745 569 791 567 800 c 5
 633 794 653 791 725 792 c 4
 766 792 836 793 897 801 c 5
 897 801 902 755 905 736 c 5
 854 743 807 720 802 665 c 4
 787 486 790 215 798 0 c 5
 770 -4 753 -5 703 -16 c 5
 701 -17 l 5
 521 255 391 446 242 650 c 5
 230 468 234 186 240 139 c 4
 251 69 307 62 359 69 c 5
 370 0 l 5
 21 -1 l 5
 13 69 l 5
EndSplineSet
Layer: 2
SplineSet
13 69 m 5
 86 54 133 79 138 162 c 4
 146 273 149 479 145 643 c 4
 144 734 98 739 28 729 c 5
 25 745 21 791 19 800 c 5
 118 791 179 790 293 794 c 5
 370 677 656 266 744 140 c 4
 749 132 683 104 688 96 c 5
 706 177 704 518 695 643 c 4
 688 734 646 739 576 729 c 5
 573 745 569 791 567 800 c 5
 633 794 653 791 725 792 c 4
 766 792 836 793 897 801 c 5
 897 801 902 755 905 736 c 5
 854 743 807 720 802 665 c 4
 787 486 790 215 798 0 c 5
 770 -4 753 -5 703 -16 c 5
 701 -17 l 5
 521 255 391 446 242 650 c 5
 230 468 234 186 240 139 c 4
 251 69 307 62 359 69 c 5
 370 0 l 5
 21 -1 l 5
 13 69 l 5
EndSplineSet
EndChar

StartChar: M
Encoding: 77 77 101
GlifName: M_
Width: 1153
VWidth: 79
Flags: HMW
LayerCount: 3
Back
SplineSet
29 800 m 1
 128 791 198 790 312 794 c 1
 345 711 499 404 559 250 c 1
 574 189 592 104 608 66 c 1
 616 16 l 1
 547 -5 l 1
 509 89 290 578 242 650 c 1
 241 641 271 682 270 673 c 0
 260 491 264 183 270 139 c 0
 281 69 337 62 389 69 c 1
 400 0 l 1
 41 -1 l 1
 33 69 l 1
 106 54 163 79 168 162 c 0
 176 273 179 479 175 643 c 0
 174 734 88 739 38 729 c 1
 35 745 31 791 29 800 c 1
541 50 m 1
 650 268 782 677 829 794 c 1
 943 790 1018 791 1117 800 c 1
 1121 771 1124 745 1128 729 c 1
 1058 739 1001 734 1000 643 c 0
 996 479 999 273 1007 162 c 0
 1012 79 1053 54 1126 69 c 1
 1138 -1 l 1
 749 0 l 5
 740 69 l 5
 792 62 859 69 870 139 c 0
 876 186 880 518 868 700 c 1
 861 690 908 738 901 728 c 1
 807 555 728 265 617 16 c 1
 541 50 l 1
EndSplineSet
Fore
SplineSet
29 800 m 1
 128 791 198 790 312 794 c 1
 345 711 499 404 559 250 c 1
 574 189 592 104 608 66 c 1
 616 16 l 1
 547 -5 l 1
 509 89 290 578 242 650 c 1
 241 641 271 682 270 673 c 0
 260 491 264 183 270 139 c 0
 281 69 337 62 389 69 c 1
 400 0 l 1
 41 -1 l 1
 33 69 l 1
 106 54 163 79 168 162 c 0
 176 273 179 479 175 643 c 0
 174 734 88 739 38 729 c 1
 35 745 31 791 29 800 c 1
541 50 m 1
 650 268 782 677 829 794 c 1
 943 790 1018 791 1117 800 c 1
 1121 771 1124 745 1128 729 c 1
 1058 739 1001 734 1000 643 c 0
 996 479 999 273 1007 162 c 0
 1012 79 1053 54 1126 69 c 1
 1138 -1 l 1
 749 0 l 5
 740 69 l 5
 792 62 859 69 870 139 c 0
 876 186 880 518 868 700 c 1
 861 690 908 738 901 728 c 1
 807 555 728 265 617 16 c 1
 541 50 l 1
EndSplineSet
Layer: 2
SplineSet
29 800 m 1
 128 791 198 790 312 794 c 1
 345 711 499 404 559 250 c 1
 574 189 592 104 608 66 c 1
 616 16 l 1
 547 -5 l 1
 509 89 290 578 242 650 c 1
 241 641 271 682 270 673 c 0
 260 491 264 183 270 139 c 0
 281 69 337 62 389 69 c 1
 400 0 l 1
 41 -1 l 1
 33 69 l 1
 106 54 163 79 168 162 c 0
 176 273 179 479 175 643 c 0
 174 734 88 739 38 729 c 1
 35 745 31 791 29 800 c 1
541 50 m 1
 650 268 782 677 829 794 c 1
 943 790 1018 791 1117 800 c 1
 1121 771 1124 745 1128 729 c 1
 1058 739 1001 734 1000 643 c 0
 996 479 999 273 1007 162 c 0
 1012 79 1053 54 1126 69 c 1
 1138 -1 l 1
 749 0 l 5
 740 69 l 5
 792 62 859 69 870 139 c 0
 876 186 880 518 868 700 c 1
 861 690 908 738 901 728 c 1
 807 555 728 265 617 16 c 1
 541 50 l 1
EndSplineSet
EndChar

StartChar: grave
Encoding: 96 96 102
GlifName: grave
Width: 496
VWidth: 0
Flags: HMW
LayerCount: 3
Back
SplineSet
73 920 m 9
 83 866 l 17
 191 881 368 958 431 1004 c 9
 371 1098 l 17
 308 1032 165 942 73 920 c 9
EndSplineSet
Fore
SplineSet
73 920 m 9
 83 866 l 17
 191 881 368 958 431 1004 c 9
 371 1098 l 17
 308 1032 165 942 73 920 c 9
EndSplineSet
Layer: 2
SplineSet
73 920 m 13
 83 866 l 21
 191 881 368 958 431 1004 c 13
 371 1098 l 21
 308 1032 165 942 73 920 c 13
EndSplineSet
EndChar

StartChar: question
Encoding: 63 63 104
GlifName: question
Width: 541
VWidth: 153
Flags: HMW
LayerCount: 3
Back
SplineSet
79.205078125 732 m 1
 191.205078125 732 l 1
 181.205078125 697 174.205078125 627 171.205078125 592 c 1
 86.205078125 580 l 1
 78.205078125 612 74.205078125 697 79.205078125 732 c 1
79.205078125 732 m 1
 132.205078125 765 219.205078125 801 306.205078125 801 c 0
 425.205078125 801 523.205078125 734 495.205078125 580 c 0
 460.205078125 393 297.205078125 345 212.205078125 318 c 1
 207.205078125 310 260.205078125 378 260.205078125 364 c 0
 260.205078125 299 275.205078125 219 279.205078125 198 c 1
 166.205078125 196 l 1
 167.205078125 233 166.205078125 340 167.205078125 364 c 1
 219.205078125 377 361.205078125 400 382.205078125 532 c 0
 399.205078125 636 355.205078125 722 231.205078125 732 c 0
 177.205078125 736 134.205078125 710 104.205078125 693 c 1
 79.205078125 732 l 1
EndSplineSet
Refer: 11 46 N 1 0 0 1 116.205 2 2
Fore
SplineSet
79.205078125 732 m 1
 191.205078125 732 l 1
 181.205078125 697 174.205078125 627 171.205078125 592 c 1
 86.205078125 580 l 1
 78.205078125 612 74.205078125 697 79.205078125 732 c 1
79.205078125 732 m 1
 132.205078125 765 219.205078125 801 306.205078125 801 c 0
 425.205078125 801 523.205078125 734 495.205078125 580 c 0
 460.205078125 393 297.205078125 345 212.205078125 318 c 1
 207.205078125 310 260.205078125 378 260.205078125 364 c 0
 260.205078125 299 275.205078125 219 279.205078125 198 c 1
 166.205078125 196 l 1
 167.205078125 233 166.205078125 340 167.205078125 364 c 1
 219.205078125 377 361.205078125 400 382.205078125 532 c 0
 399.205078125 636 355.205078125 722 231.205078125 732 c 0
 177.205078125 736 134.205078125 710 104.205078125 693 c 1
 79.205078125 732 l 1
EndSplineSet
Refer: 11 46 N 1 0 0 1 116.205 2 2
Layer: 2
SplineSet
79.205078125 732 m 1
 191.205078125 732 l 1
 181.205078125 697 174.205078125 627 171.205078125 592 c 1
 86.205078125 580 l 1
 78.205078125 612 74.205078125 697 79.205078125 732 c 1
79.205078125 732 m 1
 132.205078125 765 219.205078125 801 306.205078125 801 c 0
 425.205078125 801 523.205078125 734 495.205078125 580 c 0
 460.205078125 393 297.205078125 345 212.205078125 318 c 1
 207.205078125 310 260.205078125 378 260.205078125 364 c 0
 260.205078125 299 275.205078125 219 279.205078125 198 c 1
 166.205078125 196 l 1
 167.205078125 233 166.205078125 340 167.205078125 364 c 1
 219.205078125 377 361.205078125 400 382.205078125 532 c 0
 399.205078125 636 355.205078125 722 231.205078125 732 c 0
 177.205078125 736 134.205078125 710 104.205078125 693 c 1
 79.205078125 732 l 1
EndSplineSet
Refer: 11 46 N 1 0 0 1 116.205 2 2
EndChar

StartChar: quotesingle
Encoding: 39 39 105
GlifName: quotesingle
Width: 190
VWidth: 79
Flags: HMW
LayerCount: 3
Back
SplineSet
21.083984375 746 m 4
 19.083984375 792 53.083984375 822 91.083984375 822 c 4
 137.083984375 822 161.083984375 795 161.083984375 756 c 4
 161.083984375 717 138.083984375 688 101.083984375 679 c 5
 82.083984375 688 23.083984375 698 21.083984375 746 c 4
40.083984375 596 m 5
 46.083984375 607 71.083984375 659 57.083984375 730 c 13
 113.083984375 757 l 29
 123.083984375 725 162.083984375 787 161.083984375 756 c 4
 159.083984375 703 93.083984375 595 68.083984375 575 c 5
 40.083984375 596 l 5
EndSplineSet
Fore
SplineSet
21.083984375 746 m 4
 19.083984375 792 53.083984375 822 91.083984375 822 c 4
 137.083984375 822 161.083984375 795 161.083984375 756 c 4
 161.083984375 717 138.083984375 688 101.083984375 679 c 5
 82.083984375 688 23.083984375 698 21.083984375 746 c 4
40.083984375 596 m 5
 46.083984375 607 71.083984375 659 57.083984375 730 c 13
 113.083984375 757 l 29
 123.083984375 725 162.083984375 787 161.083984375 756 c 4
 159.083984375 703 93.083984375 595 68.083984375 575 c 5
 40.083984375 596 l 5
EndSplineSet
Layer: 2
SplineSet
21.083984375 746 m 4
 19.083984375 792 53.083984375 822 91.083984375 822 c 4
 137.083984375 822 161.083984375 795 161.083984375 756 c 4
 161.083984375 717 138.083984375 688 101.083984375 679 c 5
 82.083984375 688 23.083984375 698 21.083984375 746 c 4
40.083984375 596 m 5
 46.083984375 607 71.083984375 659 57.083984375 730 c 13
 113.083984375 757 l 29
 123.083984375 725 162.083984375 787 161.083984375 756 c 4
 159.083984375 703 93.083984375 595 68.083984375 575 c 5
 40.083984375 596 l 5
EndSplineSet
EndChar

StartChar: exclam
Encoding: 33 33 149
GlifName: exclam
Width: 314
VWidth: 153
Flags: HMW
LayerCount: 3
Back
SplineSet
139 752 m 1
 166 776 223 793 257 791 c 5
 257 791 270 759 271 697 c 0
 272 531 247 414 225 211 c 1
 152 206 l 1
 165 399 167 580 139 752 c 1
EndSplineSet
Refer: 11 46 N 1 0 0 1 89 -10 2
Fore
SplineSet
139 752 m 1
 166 776 223 793 257 791 c 5
 257 791 270 759 271 697 c 0
 272 531 247 414 225 211 c 1
 152 206 l 1
 165 399 167 580 139 752 c 1
EndSplineSet
Refer: 11 46 N 1 0 0 1 89 -10 2
Layer: 2
SplineSet
139 752 m 1
 166 776 223 793 257 791 c 5
 257 791 270 759 271 697 c 0
 272 531 247 414 225 211 c 1
 152 206 l 1
 165 399 167 580 139 752 c 1
EndSplineSet
Refer: 11 46 N 1 0 0 1 89 -10 2
EndChar

StartChar: parenright
Encoding: 41 41 150
GlifName: parenright
Width: 370
VWidth: 153
Flags: HMW
LayerCount: 3
Back
SplineSet
52 -95 m 1
 133 37 189.716796875 241.00390625 192 402 c 0
 194 543 163 696 69 814 c 5
 131 865 l 5
 184 817 292 683 307 489 c 0
 325 262 237 54 117 -133 c 1
 52 -95 l 1
EndSplineSet
Fore
SplineSet
52 -95 m 1
 133 37 189.716796875 241.00390625 192 402 c 0
 194 543 163 696 69 814 c 5
 131 865 l 5
 184 817 292 683 307 489 c 0
 325 262 237 54 117 -133 c 1
 52 -95 l 1
EndSplineSet
Layer: 2
SplineSet
52 -95 m 1
 133 37 189.716796875 241.00390625 192 402 c 0
 194 543 163 696 69 814 c 5
 131 865 l 5
 184 817 292 683 307 489 c 0
 325 262 237 54 117 -133 c 1
 52 -95 l 1
EndSplineSet
EndChar

StartChar: parenleft
Encoding: 40 40 151
GlifName: parenleft
Width: 370
VWidth: 153
Flags: HMW
LayerCount: 3
Back
SplineSet
80.4775390625 235 m 0
 62.4775390625 462 144.477539062 696 264.477539062 883 c 1
 335.477539062 849 l 1
 254.477539062 717 198.477539062 483 200.477539062 322 c 0
 201.477539062 191 214.477539062 18 318.477539062 -110 c 1
 256.477539062 -164 l 1
 198.477539062 -118 95.4775390625 41 80.4775390625 235 c 0
EndSplineSet
Fore
SplineSet
80.4775390625 235 m 0
 62.4775390625 462 144.477539062 696 264.477539062 883 c 1
 335.477539062 849 l 1
 254.477539062 717 198.477539062 483 200.477539062 322 c 0
 201.477539062 191 214.477539062 18 318.477539062 -110 c 1
 256.477539062 -164 l 1
 198.477539062 -118 95.4775390625 41 80.4775390625 235 c 0
EndSplineSet
Layer: 2
SplineSet
80.4775390625 235 m 0
 62.4775390625 462 144.477539062 696 264.477539062 883 c 1
 335.477539062 849 l 1
 254.477539062 717 198.477539062 483 200.477539062 322 c 0
 201.477539062 191 214.477539062 18 318.477539062 -110 c 1
 256.477539062 -164 l 1
 198.477539062 -118 95.4775390625 41 80.4775390625 235 c 0
EndSplineSet
EndChar

StartChar: hyphen
Encoding: 45 45 152
GlifName: hyphen
Width: 520
VWidth: 153
Flags: HW
HStem: 328 105<53 221.508 325.996 470.42>
LayerCount: 3
Back
SplineSet
39 328 m 1
 53 433 l 1
 246 423 308 423 480 433 c 1
 478 406 472 362 470 328 c 1
 39 328 l 1
EndSplineSet
Fore
SplineSet
39 328 m 1
 53 433 l 1
 246 423 308 423 480 433 c 1
 478 406 472 362 470 328 c 1
 39 328 l 1
EndSplineSet
Layer: 2
SplineSet
39 328 m 1
 53 433 l 1
 246 423 308 423 480 433 c 1
 478 406 472 362 470 328 c 1
 39 328 l 1
EndSplineSet
EndChar

StartChar: underscore
Encoding: 95 95 153
GlifName: underscore
Width: 669
VWidth: 153
Flags: HW
HStem: 1 95<53 265.407 431.097 619.42>
LayerCount: 3
Back
SplineSet
39 1 m 5
 53 96 l 5
 246 86 457 86 629 96 c 5
 627 69 621 35 619 1 c 5
 39 1 l 5
EndSplineSet
Fore
SplineSet
39 1 m 5
 53 96 l 5
 246 86 457 86 629 96 c 5
 627 69 621 35 619 1 c 5
 39 1 l 5
EndSplineSet
Layer: 2
SplineSet
39 1 m 5
 53 96 l 5
 246 86 457 86 629 96 c 5
 627 69 621 35 619 1 c 5
 39 1 l 5
EndSplineSet
EndChar

StartChar: emdash
Encoding: 307 8212 154
GlifName: emdash
Width: 669
VWidth: 153
Flags: HW
HStem: 328 95<53 265.407 431.097 619.42>
LayerCount: 3
Back
SplineSet
39 328 m 1
 53 423 l 1
 246 413 457 413 629 423 c 1
 627 396 621 362 619 328 c 1
 39 328 l 1
EndSplineSet
Fore
SplineSet
39 328 m 1
 53 423 l 1
 246 413 457 413 629 423 c 1
 627 396 621 362 619 328 c 1
 39 328 l 1
EndSplineSet
Layer: 2
SplineSet
39 328 m 1
 53 423 l 1
 246 413 457 413 629 423 c 1
 627 396 621 362 619 328 c 1
 39 328 l 1
EndSplineSet
EndChar

